<svg width="142" height="29" viewBox="0 0 142 29" fill="none" xmlns="http://www.w3.org/2000/svg">
<path d="M21.3342 12.7893C20.9377 13.1896 20.6341 13.6728 20.4449 14.2044C20.2558 14.736 20.1857 15.3029 20.2398 15.8647L20.221 15.8458C20.2766 16.5072 20.1878 17.1727 19.9607 17.7961C19.7335 18.4194 19.3736 18.9855 18.906 19.4548C18.4383 19.9241 17.8743 20.2853 17.2532 20.5132C16.6321 20.7412 15.9689 20.8304 15.3099 20.7745L15.3288 20.7934C14.5405 20.7198 13.7488 20.892 13.0616 21.2864C12.3744 21.6809 11.8251 22.2785 11.4887 22.9977C11.1523 23.7169 11.0451 24.5228 11.1818 25.3053C11.3184 26.0879 11.6923 26.8092 12.2523 27.3707C12.8124 27.9323 13.5314 28.3068 14.3113 28.4432C15.0912 28.5797 15.8941 28.4714 16.6104 28.1331C17.3268 27.7949 17.9217 27.2431 18.3142 26.5531C18.7066 25.8631 18.8774 25.0684 18.8033 24.2773L18.8232 24.2962C18.7676 23.6349 18.8565 22.9693 19.0836 22.346C19.3107 21.7227 19.6707 21.1566 20.1383 20.6873C20.6059 20.218 21.17 19.8568 21.7911 19.6288C22.4122 19.4009 23.0753 19.3117 23.7343 19.3675L23.7144 19.3486C24.3584 19.4068 25.0065 19.3008 25.5987 19.0406C26.191 18.7804 26.7082 18.3744 27.1024 17.8602C27.4967 17.3459 27.7552 16.7401 27.8541 16.0989C27.9529 15.4577 27.8889 14.8019 27.6679 14.1921C27.447 13.5824 27.0762 13.0385 26.59 12.6108C26.1038 12.1832 25.5179 11.8856 24.8866 11.7457C24.2553 11.6058 23.599 11.6281 22.9786 11.8105C22.3581 11.993 21.7936 12.3296 21.3374 12.7893H21.3342Z" fill="white" fill-opacity="0.45"/>
<path d="M13.6162 18.3174L13.5963 18.2985C14.1564 18.3552 14.722 18.2862 15.2523 18.0965C15.7825 17.9069 16.2642 17.6014 16.6624 17.2021C17.0606 16.8028 17.3654 16.3196 17.5547 15.7876C17.7441 15.2556 17.8132 14.688 17.7572 14.1258L17.7771 14.1447C17.7215 13.4834 17.8103 12.8178 18.0375 12.1945C18.2646 11.5712 18.6245 11.0051 19.0922 10.5358C19.5598 10.0665 20.1238 9.70527 20.7449 9.47732C21.366 9.24937 22.0292 9.16019 22.6882 9.21602L22.6683 9.19712C23.4567 9.27142 24.2486 9.09985 24.9362 8.70583C25.6238 8.3118 26.1736 7.7145 26.5105 6.99538C26.8474 6.27627 26.9551 5.47036 26.8188 4.68758C26.6826 3.9048 26.309 3.18325 25.7491 2.62136C25.1893 2.05947 24.4703 1.68459 23.6903 1.54785C22.9103 1.4111 22.1073 1.51916 21.3907 1.85728C20.6742 2.1954 20.079 2.74712 19.6864 3.43718C19.2938 4.12725 19.1228 4.92206 19.1969 5.71322L19.178 5.69327C19.2339 6.35465 19.1451 7.0203 18.9181 7.6437C18.691 8.26711 18.331 8.83326 17.8634 9.3026C17.3957 9.77194 16.8316 10.1332 16.2104 10.3611C15.5892 10.5889 14.926 10.678 14.267 10.622L14.2858 10.6419C13.7257 10.5853 13.1601 10.6543 12.6298 10.8439C12.0995 11.0335 11.6179 11.339 11.2197 11.7384C10.8215 12.1377 10.5167 12.6208 10.3274 13.1529C10.138 13.6849 10.0688 14.2525 10.1249 14.8146L10.106 14.7957C10.1615 15.457 10.0725 16.1225 9.84528 16.7457C9.61808 17.369 9.25813 17.935 8.79055 18.4042C8.32296 18.8735 7.75899 19.2347 7.13798 19.4628C6.51697 19.6908 5.85387 19.7801 5.19493 19.7244L5.21376 19.7433C4.42543 19.669 3.63345 19.8406 2.94586 20.2346C2.25826 20.6286 1.70851 21.226 1.3716 21.9451C1.03469 22.6642 0.927012 23.4701 1.06326 24.2529C1.19952 25.0356 1.57306 25.7572 2.13295 26.3191C2.69283 26.881 3.4118 27.2559 4.19179 27.3926C4.97177 27.5293 5.7748 27.4213 6.49134 27.0832C7.20789 26.745 7.80306 26.1933 8.19567 25.5033C8.58829 24.8132 8.75924 24.0184 8.68521 23.2272L8.70509 23.2461C8.64946 22.5848 8.73832 21.9192 8.96545 21.2959C9.19259 20.6726 9.55253 20.1065 10.0202 19.6372C10.4878 19.1679 11.0518 18.8067 11.6729 18.5787C12.294 18.3508 12.9572 18.2616 13.6162 18.3174Z" fill="white" fill-opacity="0.45"/>
<path d="M6.60479 16.2102C7.00134 15.81 7.30495 15.3268 7.49394 14.7951C7.68294 14.2635 7.75266 13.6966 7.69812 13.1348L7.718 13.1537C7.66233 12.4922 7.75123 11.8264 7.97848 11.2029C8.20574 10.5794 8.56587 10.0132 9.03373 9.54391C9.5016 9.07456 10.0659 8.71338 10.6873 8.48557C11.3086 8.25777 11.972 8.16884 12.6312 8.22499L12.6113 8.20609C13.3994 8.28018 14.191 8.10852 14.8783 7.71452C15.5656 7.32053 16.115 6.72336 16.4517 6.00448C16.7885 5.28559 16.896 4.47997 16.7598 3.69748C16.6235 2.915 16.2501 2.19373 15.6904 1.63204C15.1307 1.07035 14.412 0.695588 13.6324 0.558853C12.8527 0.422118 12.0499 0.53007 11.3336 0.867985C10.6173 1.2059 10.0223 1.75733 9.62966 2.44707C9.23707 3.13682 9.06602 3.93131 9.13985 4.72219L9.12102 4.70329C9.17665 5.36463 9.08779 6.03019 8.86066 6.65352C8.63352 7.27684 8.27358 7.84291 7.80596 8.31221C7.33833 8.78151 6.77428 9.14275 6.15319 9.37069C5.53209 9.59864 4.86891 9.68781 4.20993 9.63199L4.22876 9.65089C3.58487 9.59294 2.93682 9.69904 2.34466 9.95936C1.75251 10.2197 1.2354 10.6258 0.841269 11.1401C0.447136 11.6543 0.188727 12.2601 0.0899865 12.9013C-0.00875364 13.5425 0.05537 14.1983 0.276416 14.808C0.497462 15.4177 0.868278 15.9615 1.3545 16.3891C1.84072 16.8167 2.42662 17.1142 3.05791 17.254C3.68919 17.3938 4.34543 17.3715 4.96581 17.189C5.5862 17.0066 6.15066 16.6699 6.60688 16.2102H6.60479Z" fill="white" fill-opacity="0.45"/>
<path d="M39.0137 5.73755H42.121V20.9132H39.0137V5.73755Z" fill="white" fill-opacity="0.45"/>
<path d="M43.881 15.7167C43.8767 14.6261 44.1949 13.5588 44.7955 12.6499C45.396 11.741 46.2519 11.0314 47.2546 10.611C48.2573 10.1907 49.3618 10.0784 50.4281 10.2885C51.4945 10.4986 52.4747 11.0215 53.2446 11.7912C54.0146 12.5608 54.5396 13.5424 54.7532 14.6117C54.9668 15.681 54.8594 16.7899 54.4445 17.7979C54.0297 18.8059 53.3261 19.6676 52.4228 20.274C51.5196 20.8803 50.4574 21.204 49.3707 21.204C48.6493 21.2123 47.9336 21.0761 47.2653 20.8036C46.597 20.531 45.9895 20.1275 45.4784 19.6166C44.9672 19.1057 44.5627 18.4976 44.2885 17.828C44.0142 17.1584 43.8757 16.4407 43.881 15.7167ZM51.753 15.7167C51.74 15.2466 51.5893 14.7908 51.3196 14.4062C51.0499 14.0217 50.6733 13.7254 50.2367 13.5545C49.8002 13.3836 49.3231 13.3456 48.8652 13.4453C48.4073 13.5451 47.9888 13.778 47.6621 14.1151C47.3353 14.4522 47.1149 14.8785 47.0283 15.3407C46.9416 15.8028 46.9927 16.2803 47.175 16.7135C47.3573 17.1468 47.6629 17.5164 48.0534 17.7763C48.4439 18.0362 48.9021 18.1748 49.3707 18.1748C49.6916 18.1834 50.0108 18.1251 50.3082 18.0038C50.6055 17.8824 50.8746 17.7005 51.0984 17.4695C51.3223 17.2386 51.496 16.9636 51.6086 16.6619C51.7213 16.3602 51.7704 16.0384 51.753 15.7167Z" fill="white" fill-opacity="0.45"/>
<path d="M67.2448 10.5191V20.3891C67.2448 23.8814 64.5309 25.3577 61.7761 25.3577C60.8062 25.4306 59.835 25.2339 58.969 24.7894C58.1031 24.3449 57.3759 23.6697 56.8671 22.8377L59.5183 21.2995C59.7321 21.7331 60.0729 22.0909 60.4949 22.3249C60.9169 22.5589 61.4 22.658 61.8797 22.6088C62.1862 22.6514 62.4984 22.6244 62.7931 22.5296C63.0878 22.4347 63.3575 22.2747 63.5822 22.0611C63.8069 21.8476 63.981 21.5861 64.0914 21.2959C64.2018 21.0058 64.2458 20.6944 64.2201 20.3849V19.4347C63.8563 19.8815 63.3931 20.2365 62.8678 20.4712C62.3425 20.7058 61.7697 20.8137 61.1954 20.786C59.8288 20.7428 58.5326 20.1675 57.5811 19.1821C56.6297 18.1966 56.0977 16.8783 56.0977 15.5061C56.0977 14.1339 56.6297 12.8156 57.5811 11.8301C58.5326 10.8447 59.8288 10.2694 61.1954 10.2262C61.7697 10.1985 62.3425 10.3063 62.8678 10.541C63.3931 10.7757 63.8563 11.1307 64.2201 11.5775V10.517L67.2448 10.5191ZM64.2212 15.5077C64.2421 15.0051 64.1126 14.5077 63.8494 14.0796C63.5863 13.6515 63.2015 13.3122 62.7446 13.1055C62.2877 12.8987 61.7796 12.8338 61.2857 12.9193C60.7917 13.0048 60.3346 13.2367 59.9731 13.5851C59.6116 13.9335 59.3622 14.3825 59.2572 14.8743C59.1521 15.3662 59.1961 15.8783 59.3835 16.3449C59.5709 16.8114 59.8931 17.211 60.3087 17.4922C60.7243 17.7733 61.2142 17.9233 61.7154 17.9227C62.0419 17.9455 62.3695 17.8995 62.6772 17.7876C62.9849 17.6757 63.2658 17.5003 63.5019 17.2728C63.7379 17.0453 63.9239 16.7707 64.0478 16.4667C64.1717 16.1627 64.2307 15.836 64.2212 15.5077Z" fill="white" fill-opacity="0.45"/>
<path d="M69.005 15.7167C69.0007 14.6261 69.3189 13.5588 69.9195 12.6499C70.5201 11.741 71.3759 11.0314 72.3786 10.611C73.3813 10.1907 74.4858 10.0784 75.5521 10.2885C76.6185 10.4986 77.5987 11.0215 78.3686 11.7912C79.1386 12.5608 79.6636 13.5424 79.8772 14.6117C80.0908 15.681 79.9834 16.7899 79.5686 17.7979C79.1537 18.8059 78.4501 19.6676 77.5469 20.274C76.6436 20.8803 75.5814 21.204 74.4947 21.204C73.7734 21.2123 73.0576 21.0761 72.3893 20.8036C71.721 20.531 71.1135 20.1275 70.6024 19.6166C70.0913 19.1057 69.6868 18.4976 69.4125 17.828C69.1382 17.1584 68.9997 16.4407 69.005 15.7167ZM76.877 15.7167C76.864 15.2466 76.7133 14.7908 76.4436 14.4062C76.1739 14.0217 75.7973 13.7254 75.3607 13.5545C74.9242 13.3836 74.4471 13.3456 73.9892 13.4453C73.5313 13.5451 73.1128 13.778 72.7861 14.1151C72.4594 14.4522 72.2389 14.8785 72.1523 15.3407C72.0657 15.8028 72.1167 16.2803 72.299 16.7135C72.4814 17.1468 72.7869 17.5164 73.1774 17.7763C73.5679 18.0362 74.0261 18.1748 74.4947 18.1748C74.8156 18.1834 75.1348 18.1251 75.4322 18.0038C75.7295 17.8824 75.9986 17.7005 76.2225 17.4695C76.4463 17.2386 76.62 16.9636 76.7327 16.6619C76.8453 16.3602 76.8945 16.0384 76.877 15.7167Z" fill="white" fill-opacity="0.45"/>
<path d="M81.4336 7.73341C81.4336 7.36334 81.5429 7.00158 81.7478 6.69388C81.9527 6.38618 82.2439 6.14635 82.5845 6.00473C82.9252 5.86312 83.3001 5.82606 83.6617 5.89826C84.0234 5.97045 84.3556 6.14866 84.6163 6.41034C84.8771 6.67202 85.0547 7.00541 85.1266 7.36837C85.1985 7.73133 85.1616 8.10755 85.0205 8.44945C84.8794 8.79134 84.6404 9.08357 84.3338 9.28917C84.0272 9.49477 83.6668 9.60451 83.298 9.60451C82.8051 9.59958 82.3337 9.40087 81.9851 9.05103C81.6365 8.7012 81.4385 8.22813 81.4336 7.73341ZM81.7475 10.5191H84.8559V20.9141H81.7433L81.7475 10.5191Z" fill="white" fill-opacity="0.45"/>
<path d="M98.2725 15.7166C98.3084 16.4036 98.2086 17.0909 97.9789 17.7391C97.7492 18.3872 97.3941 18.9834 96.934 19.4934C96.4739 20.0033 95.9179 20.417 95.298 20.7105C94.678 21.0041 94.0064 21.1717 93.3216 21.2039C92.7458 21.2354 92.1702 21.1379 91.6365 20.9185C91.1029 20.6992 90.6246 20.3633 90.2363 19.9355V25.071H87.1289V10.5191H90.2363V11.4956C90.6248 11.068 91.1031 10.7324 91.6368 10.5132C92.1704 10.2941 92.7459 10.1967 93.3216 10.2282C94.0065 10.2602 94.6783 10.4278 95.2984 10.7214C95.9185 11.0149 96.4746 11.4287 96.9347 11.9388C97.3949 12.4489 97.75 13.0452 97.9795 13.6936C98.2091 14.3419 98.3087 15.0294 98.2725 15.7166ZM95.1651 15.7166C95.153 15.2301 94.9981 14.758 94.72 14.3594C94.4418 13.9608 94.0527 13.6533 93.6012 13.4756C93.1498 13.2979 92.6562 13.2577 92.1822 13.3601C91.7081 13.4625 91.2747 13.703 90.9362 14.0514C90.5976 14.3998 90.369 14.8407 90.2789 15.3189C90.1888 15.797 90.2412 16.2913 90.4297 16.7397C90.6181 17.1881 90.9341 17.5708 91.3381 17.8398C91.7422 18.1089 92.2163 18.2524 92.7012 18.2523C93.0341 18.2672 93.3664 18.2113 93.6763 18.0882C93.9861 17.9652 94.2666 17.7778 94.4992 17.5384C94.7319 17.2989 94.9115 17.0129 95.0262 16.6989C95.141 16.3849 95.1883 16.0502 95.1651 15.7166Z" fill="white" fill-opacity="0.45"/>
<path d="M107.862 17.7946C107.862 20.1855 105.791 21.204 103.554 21.204C102.651 21.2862 101.743 21.0943 100.949 20.6533C100.155 20.2123 99.5112 19.5424 99.1006 18.7302L101.793 17.1919C101.901 17.5674 102.135 17.8939 102.455 18.1171C102.775 18.3404 103.162 18.4467 103.55 18.4183C104.295 18.4183 104.669 18.1894 104.669 17.7747C104.669 16.6302 99.5724 17.2339 99.5724 13.6377C99.5724 11.3708 101.479 10.2283 103.633 10.2283C104.443 10.2026 105.245 10.3954 105.955 10.7866C106.665 11.1777 107.258 11.7529 107.671 12.4522L105.02 13.8865C104.904 13.6143 104.71 13.3824 104.464 13.2197C104.217 13.0571 103.928 12.9709 103.633 12.972C103.094 12.972 102.762 13.182 102.762 13.5537C102.767 14.7391 107.862 13.9485 107.862 17.7946Z" fill="white" fill-opacity="0.45"/>
<path d="M119.212 10.5193V20.9143H116.104V19.9367C115.746 20.3681 115.291 20.708 114.776 20.9285C114.261 21.1489 113.702 21.2438 113.144 21.2051C111.051 21.2051 109.272 19.7089 109.272 16.9001V10.5193H112.38V16.4434C112.354 16.691 112.382 16.9412 112.462 17.1768C112.542 17.4124 112.673 17.6276 112.844 17.8075C113.016 17.9874 113.224 18.1276 113.455 18.2184C113.686 18.3093 113.934 18.3485 114.181 18.3334C115.321 18.3334 116.108 17.6687 116.108 16.1924V10.5224L119.212 10.5193Z" fill="white" fill-opacity="0.45"/>
<path d="M137.03 14.5313V20.9132H133.923V14.8012C133.923 13.7617 133.426 13.097 132.432 13.097C131.396 13.097 130.815 13.8247 130.815 15.0511V20.9132H127.709V14.8012C127.709 13.7617 127.212 13.097 126.217 13.097C125.181 13.097 124.601 13.8247 124.601 15.0511V20.9132H121.494V10.5182H124.601V11.4737C124.924 11.0498 125.346 10.7137 125.831 10.4959C126.316 10.2782 126.848 10.1859 127.377 10.2274C127.909 10.2013 128.438 10.3139 128.914 10.5542C129.389 10.7945 129.794 11.1544 130.09 11.5987C130.434 11.1339 130.891 10.7643 131.416 10.5245C131.941 10.2846 132.519 10.1824 133.094 10.2274C135.472 10.2284 137.03 11.9326 137.03 14.5313Z" fill="white" fill-opacity="0.45"/>
<path d="M139.658 10.4551C140.932 10.4551 141.964 9.41895 141.964 8.14086C141.964 6.86276 140.932 5.82666 139.658 5.82666C138.385 5.82666 137.353 6.86276 137.353 8.14086C137.353 9.41895 138.385 10.4551 139.658 10.4551Z" fill="white" fill-opacity="0.45"/>
</svg>
