<svg width="124" height="26" viewBox="0 0 124 26" fill="none" xmlns="http://www.w3.org/2000/svg">
<path d="M40.0188 20.6854C39.3965 20.719 38.781 20.5431 38.2715 20.1862C38.0587 20.0294 37.8874 19.8234 37.7726 19.586C37.6577 19.3487 37.6028 19.0871 37.6124 18.8238V9.18305C37.6073 9.14223 37.6117 9.1008 37.6251 9.0619C37.6386 9.02301 37.6608 8.98767 37.69 8.95859C37.7193 8.92951 37.7548 8.90744 37.794 8.89408C37.8331 8.88071 37.8748 8.87639 37.9158 8.88145H39.6735C39.8723 8.88145 39.9664 8.98545 39.9664 9.18305V18.075C39.9664 18.4702 40.1443 18.6678 40.5105 18.6678C40.6657 18.6742 40.821 18.6567 40.9708 18.6158C41.1801 18.6158 41.2952 18.6782 41.3056 18.8654L41.4626 20.1654C41.4701 20.2033 41.4694 20.2424 41.4605 20.28C41.4515 20.3176 41.4346 20.3529 41.4108 20.3834C41.387 20.414 41.3569 20.4391 41.3225 20.4571C41.2881 20.4751 41.2503 20.4856 41.2115 20.4878C40.8265 20.6143 40.4242 20.6809 40.0188 20.6854Z" fill="white" fill-opacity="0.45"/>
<path d="M49.9057 19.5728C49.0225 20.2982 47.9126 20.695 46.767 20.695C45.6213 20.695 44.5115 20.2982 43.6283 19.5728C42.852 18.7938 42.4165 17.7417 42.4165 16.6452C42.4165 15.5487 42.852 14.4966 43.6283 13.7176C44.5132 12.996 45.6224 12.6016 46.767 12.6016C47.9116 12.6016 49.0208 12.996 49.9057 13.7176C50.6641 14.5037 51.0875 15.5508 51.0875 16.64C51.0875 17.7292 50.6641 18.7762 49.9057 19.5624V19.5728ZM45.2813 18.2C45.6912 18.569 46.2244 18.7734 46.7774 18.7734C47.3304 18.7734 47.8637 18.569 48.2736 18.2C48.6445 17.776 48.8488 17.2331 48.8488 16.6712C48.8488 16.1093 48.6445 15.5664 48.2736 15.1424C47.8637 14.7733 47.3304 14.5689 46.7774 14.5689C46.2244 14.5689 45.6912 14.7733 45.2813 15.1424C44.9104 15.5664 44.7061 16.1093 44.7061 16.6712C44.7061 17.2331 44.9104 17.776 45.2813 18.2Z" fill="white" fill-opacity="0.45"/>
<path d="M60.7653 12.8648C60.9641 12.8648 61.0582 12.9688 61.0582 13.1664V20.6232C61.0765 21.1265 60.9818 21.6275 60.7809 22.0899C60.58 22.5522 60.278 22.9642 59.8969 23.296C59.051 24.0131 57.963 24.3847 56.8524 24.336C55.8492 24.3711 54.8594 24.0988 54.0171 23.556C53.6574 23.3212 53.3501 23.0154 53.1143 22.6576C52.8785 22.2998 52.7193 21.8976 52.6465 21.476C52.6465 21.268 52.6465 21.1744 52.929 21.1744H54.6867C54.7613 21.177 54.8336 21.2009 54.8948 21.2433C54.9561 21.2858 55.0037 21.3449 55.0319 21.4136C55.1459 21.7295 55.3732 21.9924 55.6701 22.152C56.032 22.3376 56.4348 22.4306 56.8419 22.4224C57.0876 22.4358 57.3334 22.4004 57.5652 22.3182C57.7969 22.2361 58.0098 22.1089 58.1915 21.944C58.3575 21.7716 58.4867 21.5675 58.5712 21.344C58.6557 21.1206 58.6938 20.8825 58.6833 20.644V19.9888C58.054 20.449 57.288 20.6869 56.5071 20.6648C55.9606 20.6846 55.4156 20.5944 54.905 20.3996C54.3944 20.2048 53.9287 19.9094 53.5358 19.5312C52.7815 18.7555 52.3599 17.7189 52.3599 16.64C52.3599 15.5612 52.7815 14.5245 53.5358 13.7488C53.9306 13.374 54.3969 13.0815 54.9072 12.8886C55.4175 12.6957 55.9615 12.6063 56.5071 12.6256C57.3106 12.6045 58.0971 12.8578 58.7356 13.3432V13.1768C58.7308 13.137 58.735 13.0966 58.7478 13.0585C58.7607 13.0205 58.7819 12.9857 58.81 12.9569C58.838 12.928 58.8722 12.9057 58.91 12.8916C58.9478 12.8774 58.9883 12.8719 59.0285 12.8752L60.7653 12.8648ZM56.7059 18.8136C56.9754 18.8219 57.2435 18.7713 57.4912 18.6652C57.7389 18.5592 57.9601 18.4004 58.1392 18.2C58.4871 17.7535 58.6758 17.2048 58.6758 16.64C58.6758 16.0753 58.4871 15.5266 58.1392 15.08C57.9607 14.8824 57.7408 14.7259 57.495 14.6217C57.2492 14.5175 56.9834 14.4681 56.7163 14.4768C56.4437 14.4683 56.1725 14.5188 55.9214 14.6247C55.6703 14.7307 55.4453 14.8896 55.2621 15.0904C54.8767 15.5176 54.6741 16.0772 54.6971 16.6504C54.6782 17.2181 54.8764 17.7718 55.2516 18.2C55.4353 18.4004 55.6603 18.5589 55.9113 18.6648C56.1623 18.7707 56.4333 18.8215 56.7059 18.8136Z" fill="white" fill-opacity="0.45"/>
<path d="M70.0871 19.5727C69.2022 20.2943 68.093 20.6887 66.9484 20.6887C65.8038 20.6887 64.6946 20.2943 63.8097 19.5727C63.0507 18.7848 62.627 17.736 62.627 16.6451C62.627 15.5542 63.0507 14.5054 63.8097 13.7175C64.6955 12.9977 65.8044 12.6045 66.9484 12.6045C68.0925 12.6045 69.2014 12.9977 70.0871 13.7175C70.8455 14.5036 71.2689 15.5507 71.2689 16.6399C71.2689 17.7291 70.8455 18.7761 70.0871 19.5623V19.5727ZM65.4523 18.1999C65.6529 18.3895 65.8893 18.5378 66.1479 18.636C66.4065 18.7341 66.6822 18.7803 66.9589 18.7719C67.2339 18.779 67.5075 18.7321 67.7642 18.6339C68.021 18.5358 68.2557 18.3883 68.455 18.1999C68.8199 17.7731 69.0203 17.2312 69.0203 16.6711C69.0203 16.111 68.8199 15.5691 68.455 15.1423C68.2557 14.9539 68.021 14.8064 67.7642 14.7082C67.5075 14.6101 67.2339 14.5632 66.9589 14.5703C66.6822 14.5618 66.4065 14.608 66.1479 14.7062C65.8893 14.8044 65.6529 14.9526 65.4523 15.1423C65.0874 15.5691 64.8871 16.111 64.8871 16.6711C64.8871 17.2312 65.0874 17.7731 65.4523 18.1999Z" fill="white" fill-opacity="0.45"/>
<path d="M75.0467 11.0968C74.7702 11.3374 74.4151 11.4701 74.0476 11.4701C73.68 11.4701 73.325 11.3374 73.0484 11.0968C72.923 10.9792 72.8231 10.8373 72.7549 10.6799C72.6866 10.5226 72.6514 10.353 72.6514 10.1816C72.6514 10.0102 72.6866 9.84063 72.7549 9.68325C72.8231 9.52588 72.923 9.38403 73.0484 9.2664C73.3279 9.03178 73.6818 8.90308 74.0476 8.90308C74.4134 8.90308 74.7673 9.03178 75.0467 9.2664C75.1721 9.38403 75.272 9.52588 75.3403 9.68325C75.4086 9.84063 75.4438 10.0102 75.4438 10.1816C75.4438 10.353 75.4086 10.5226 75.3403 10.6799C75.272 10.8373 75.1721 10.9792 75.0467 11.0968ZM75.2665 20.6856C74.6445 20.7159 74.0301 20.5403 73.5192 20.1864C73.3096 20.0272 73.1413 19.8205 73.0285 19.5835C72.9156 19.3465 72.8615 19.0861 72.8706 18.824V13.1664C72.8655 13.1256 72.8698 13.0841 72.8833 13.0453C72.8967 13.0064 72.9189 12.971 72.9482 12.9419C72.9774 12.9129 73.013 12.8908 73.0521 12.8774C73.0912 12.8641 73.1329 12.8597 73.174 12.8648H74.9317C75.1304 12.8648 75.2246 12.9688 75.2246 13.1664V18.0752C75.2246 18.4704 75.4025 18.668 75.7582 18.668C75.9168 18.6737 76.0755 18.6561 76.229 18.616C76.4382 18.616 76.5533 18.6784 76.5638 18.8656L76.7207 20.1656C76.7283 20.2035 76.7275 20.2426 76.7186 20.2802C76.7097 20.3178 76.6928 20.353 76.669 20.3836C76.6452 20.4141 76.6151 20.4393 76.5807 20.4573C76.5463 20.4753 76.5084 20.4858 76.4696 20.488C76.0812 20.6151 75.6754 20.6818 75.2665 20.6856Z" fill="white" fill-opacity="0.45"/>
<path d="M83.1862 12.6152C83.7352 12.5936 84.283 12.6819 84.797 12.8749C85.311 13.0678 85.7808 13.3614 86.1785 13.7384C86.9183 14.5276 87.3297 15.5664 87.3297 16.6452C87.3297 17.724 86.9183 18.7627 86.1785 19.552C85.7827 19.9322 85.3135 20.2287 84.7992 20.4236C84.2849 20.6184 83.7362 20.7076 83.1862 20.6856C82.4027 20.7029 81.635 20.4655 80.9996 20.0096V23.764C80.9996 23.9616 80.895 24.0552 80.6962 24.0552H78.9385C78.8984 24.0626 78.8571 24.0602 78.8181 24.0482C78.7791 24.0362 78.7437 24.015 78.7148 23.9863C78.686 23.9576 78.6646 23.9224 78.6525 23.8836C78.6404 23.8449 78.6381 23.8038 78.6456 23.764V15.236C78.6579 15.1525 78.6504 15.0674 78.6237 14.9874C78.5971 14.9074 78.5519 14.8346 78.492 14.775C78.432 14.7154 78.3588 14.6706 78.2783 14.6441C78.1978 14.6175 78.1122 14.6101 78.0283 14.6224H77.683C77.4528 14.6224 77.3378 14.5392 77.3378 14.3728V13.1456C77.3323 13.0696 77.3532 12.9941 77.397 12.9317C77.4408 12.8692 77.5048 12.8236 77.5784 12.8024C77.9403 12.6716 78.3233 12.6081 78.7083 12.6152C79.0923 12.5814 79.4776 12.6623 79.815 12.8476C80.1524 13.0329 80.4264 13.3141 80.602 13.6552C80.939 13.3163 81.342 13.0493 81.7863 12.8705C82.2306 12.6917 82.707 12.6048 83.1862 12.6152ZM81.5541 18.2C81.7406 18.3938 81.9647 18.548 82.2129 18.6534C82.461 18.7587 82.7281 18.813 82.9979 18.813C83.2677 18.813 83.5348 18.7587 83.7829 18.6534C84.031 18.548 84.2551 18.3938 84.4417 18.2C84.8347 17.7643 85.0411 17.1934 85.0171 16.6088C85.0445 16.0236 84.8376 15.4515 84.4417 15.0176C84.2551 14.8238 84.031 14.6695 83.7829 14.5642C83.5348 14.4588 83.2677 14.4045 82.9979 14.4045C82.7281 14.4045 82.461 14.4588 82.2129 14.5642C81.9647 14.6695 81.7406 14.8238 81.5541 15.0176C81.1734 15.4591 80.9753 16.0277 80.9996 16.6088C80.9784 17.1893 81.1761 17.7568 81.5541 18.2Z" fill="white" fill-opacity="0.45"/>
<path d="M92.2677 20.6855C91.3285 20.7239 90.3972 20.5005 89.5789 20.0407C89.2505 19.8441 88.9709 19.5766 88.7608 19.2579C88.5507 18.9392 88.4155 18.5776 88.3652 18.1999C88.3652 17.9919 88.4385 17.8879 88.6686 17.8879H90.2066C90.2798 17.8907 90.3507 17.9136 90.4117 17.954C90.4726 17.9943 90.5211 18.0507 90.5519 18.1167C90.7716 18.6783 91.347 18.9591 92.2677 18.9591C92.5888 18.9737 92.9087 18.9094 93.1989 18.7719C93.299 18.7269 93.385 18.6558 93.4477 18.566C93.5103 18.4763 93.5473 18.3713 93.5546 18.2623C93.5546 17.9919 93.3872 17.8047 93.0524 17.6799C92.6553 17.5485 92.2447 17.4613 91.8283 17.4199C91.335 17.3644 90.8457 17.2775 90.3636 17.1599C89.8947 17.0544 89.4683 16.8117 89.1395 16.4631C88.9458 16.2262 88.8032 15.9521 88.7207 15.6581C88.6381 15.3641 88.6172 15.0563 88.6594 14.7539C88.7016 14.4515 88.806 14.161 88.9659 13.9004C89.1259 13.6398 89.3381 13.4147 89.5893 13.2391C90.3434 12.7616 91.2282 12.529 92.1212 12.5735C92.9858 12.5444 93.8413 12.757 94.5904 13.1871C94.8922 13.3571 95.1522 13.5918 95.3513 13.8743C95.5504 14.1568 95.6836 14.4798 95.7412 14.8199C95.7412 15.0279 95.6471 15.1319 95.4587 15.1319H93.9103C93.8451 15.1357 93.7803 15.1199 93.7243 15.0865C93.6683 15.0531 93.6237 15.0037 93.5964 14.9447C93.493 14.6984 93.2982 14.501 93.0524 14.3935C92.7751 14.2493 92.4654 14.1777 92.1526 14.1855C91.8459 14.1689 91.54 14.2297 91.2633 14.3623C91.1658 14.3997 91.0818 14.4652 91.0222 14.5505C90.9625 14.6358 90.9299 14.7368 90.9285 14.8407C90.9352 14.9829 90.9876 15.1193 91.078 15.2297C91.1684 15.3401 91.292 15.4189 91.4307 15.4543C91.8325 15.6048 92.2502 15.7095 92.6757 15.7663C93.165 15.8303 93.6505 15.9206 94.13 16.0367C94.5989 16.1422 95.0253 16.3849 95.3541 16.7335C95.53 16.9255 95.6659 17.1503 95.7539 17.3949C95.8419 17.6394 95.8802 17.8989 95.8668 18.1583C95.8758 18.5178 95.7909 18.8735 95.6204 19.1907C95.4498 19.5078 95.1995 19.7756 94.8938 19.9679C94.1121 20.4667 93.1961 20.717 92.2677 20.6855Z" fill="white" fill-opacity="0.45"/>
<path d="M106.926 20.1655C106.931 20.2025 106.93 20.2402 106.921 20.2765C106.912 20.3129 106.896 20.347 106.873 20.3771C106.851 20.4071 106.823 20.4324 106.79 20.4514C106.758 20.4705 106.722 20.4829 106.685 20.488C106.303 20.6119 105.904 20.6785 105.503 20.6855C105.105 20.7265 104.704 20.6647 104.337 20.5062C103.97 20.3477 103.651 20.0978 103.41 19.7808C102.671 20.4123 101.716 20.7364 100.742 20.6855C100.29 20.7062 99.8391 20.6327 99.4175 20.4697C98.9959 20.3068 98.6132 20.0579 98.2941 19.7391C97.9772 19.4052 97.7314 19.011 97.5714 18.5803C97.4114 18.1497 97.3405 17.6913 97.3629 17.2327V13.1663C97.3629 12.9687 97.4571 12.8647 97.6559 12.8647H99.4136C99.6124 12.8647 99.7065 12.9687 99.7065 13.1663V16.9207C99.6874 17.3885 99.8483 17.8459 100.156 18.1999C100.31 18.3621 100.497 18.4897 100.705 18.574C100.912 18.6583 101.136 18.6974 101.36 18.6888C101.589 18.6987 101.818 18.6634 102.033 18.5849C102.249 18.5063 102.447 18.3861 102.615 18.2311C102.774 18.0678 102.899 17.8737 102.98 17.6609C103.06 17.448 103.097 17.2209 103.086 16.9935V13.1663C103.086 12.9687 103.18 12.8647 103.379 12.8647H105.157C105.356 12.8647 105.45 12.9687 105.45 13.1663V18.0647C105.45 18.4703 105.628 18.668 105.973 18.668C106.136 18.6742 106.298 18.6567 106.455 18.616C106.494 18.6049 106.536 18.6029 106.576 18.6102C106.617 18.6174 106.655 18.6336 106.688 18.6576C106.721 18.6816 106.749 18.7128 106.768 18.7488C106.787 18.7848 106.798 18.8247 106.8 18.8655L106.926 20.1655Z" fill="white" fill-opacity="0.45"/>
<path d="M123.55 20.1657C123.56 20.2029 123.56 20.2417 123.553 20.2794C123.545 20.317 123.529 20.3525 123.506 20.3833C123.483 20.4141 123.454 20.4395 123.42 20.4576C123.386 20.4757 123.348 20.4861 123.31 20.4881C122.921 20.6138 122.515 20.6804 122.106 20.6857C121.484 20.7176 120.869 20.5419 120.359 20.1865C120.139 20.0342 119.959 19.8302 119.837 19.5926C119.715 19.3549 119.653 19.0909 119.658 18.8241V16.3801C119.68 15.9137 119.523 15.4564 119.219 15.1009C119.072 14.9383 118.891 14.8102 118.688 14.7256C118.485 14.6411 118.267 14.6023 118.047 14.6121C117.849 14.6046 117.652 14.642 117.471 14.7212C117.29 14.8005 117.129 14.9196 117.001 15.0697C116.725 15.4182 116.583 15.8537 116.603 16.2969V20.1345C116.603 20.3321 116.509 20.4361 116.31 20.4361H114.542C114.501 20.4411 114.459 20.4368 114.42 20.4234C114.381 20.4101 114.346 20.388 114.316 20.3589C114.287 20.3298 114.265 20.2945 114.251 20.2556C114.238 20.2167 114.234 20.1753 114.239 20.1345V16.3801C114.262 15.9188 114.117 15.4648 113.831 15.1009C113.703 14.948 113.543 14.825 113.362 14.7405C113.182 14.656 112.984 14.6121 112.784 14.6121C112.571 14.6035 112.358 14.6398 112.16 14.7187C111.961 14.7975 111.782 14.9171 111.634 15.0697C111.334 15.407 111.18 15.8477 111.205 16.2969V20.1345C111.21 20.1753 111.205 20.2167 111.192 20.2556C111.178 20.2945 111.156 20.3298 111.127 20.3589C111.098 20.388 111.062 20.4101 111.023 20.4234C110.984 20.4368 110.942 20.4411 110.901 20.4361H109.196C108.997 20.4361 108.903 20.3321 108.903 20.1345V15.2361C108.915 15.1526 108.908 15.0675 108.881 14.9875C108.854 14.9075 108.809 14.8347 108.749 14.7751C108.689 14.7155 108.616 14.6707 108.536 14.6442C108.455 14.6176 108.37 14.6102 108.286 14.6225H107.94C107.71 14.6225 107.595 14.5393 107.595 14.3729V13.1457C107.59 13.0697 107.611 12.9942 107.654 12.9318C107.698 12.8693 107.762 12.8237 107.836 12.8025C108.198 12.6717 108.581 12.6082 108.966 12.6153C109.335 12.584 109.706 12.6572 110.036 12.8265C110.365 12.9958 110.64 13.2543 110.828 13.5721C111.181 13.2395 111.599 12.9829 112.056 12.8183C112.514 12.6536 113 12.5845 113.485 12.6153C113.957 12.5924 114.427 12.6803 114.858 12.8718C115.289 13.0634 115.668 13.3531 115.965 13.7177C116.311 13.3436 116.737 13.0506 117.211 12.86C117.685 12.6693 118.196 12.5858 118.706 12.6153C119.163 12.594 119.619 12.6672 120.046 12.8301C120.473 12.993 120.861 13.2421 121.186 13.5617C121.504 13.895 121.75 14.289 121.91 14.7198C122.07 15.1507 122.141 15.6094 122.117 16.0681V18.0753C122.117 18.4705 122.295 18.6681 122.63 18.6681C122.792 18.6756 122.954 18.658 123.111 18.6161C123.327 18.6161 123.442 18.6993 123.456 18.8657L123.55 20.1657Z" fill="white" fill-opacity="0.45"/>
<path d="M0.86841 11.5128C1.64029 8.42881 3.42795 5.69023 5.94674 3.73305C8.46554 1.77588 11.5706 0.712646 14.7677 0.712646C17.9647 0.712646 21.0698 1.77588 23.5886 3.73305C26.1074 5.69023 27.895 8.42881 28.6669 11.5128H27.4114C25.2935 11.4818 23.219 12.1109 21.4793 13.312C21.3789 13.3842 21.274 13.4502 21.1654 13.5096H21.0189C20.9103 13.4502 20.8055 13.3842 20.7051 13.312C18.9499 12.1387 16.8828 11.5121 14.7677 11.5121C12.6526 11.5121 10.5855 12.1387 8.83027 13.312C8.72987 13.3842 8.62504 13.4502 8.5164 13.5096H8.36993C8.26129 13.4502 8.15646 13.3842 8.05606 13.312C6.31631 12.1109 4.24181 11.4818 2.12389 11.5128H0.86841ZM25.1516 18.0336C25.7961 17.5346 26.5948 17.2736 27.4114 17.2952H29.0959V13.9568H27.4114C25.9731 13.9395 24.5676 14.3845 23.4044 15.2256C22.7497 15.7053 21.9578 15.9641 21.1445 15.9641C20.3312 15.9641 19.5392 15.7053 18.8846 15.2256C17.6918 14.4002 16.2733 13.9577 14.82 13.9577C13.3666 13.9577 11.9481 14.4002 10.7553 15.2256C10.1007 15.7053 9.30878 15.9641 8.49548 15.9641C7.68218 15.9641 6.89023 15.7053 6.23561 15.2256C5.05796 14.3737 3.63235 13.9281 2.17621 13.9568H0.439453V17.2952H2.12389C2.94049 17.2736 3.73927 17.5346 4.38377 18.0336C5.57439 18.8595 6.9913 19.3023 8.44317 19.3023C9.89503 19.3023 11.3119 18.8595 12.5026 18.0336C13.1479 17.5362 13.9461 17.2754 14.7624 17.2952C15.5793 17.2719 16.3786 17.5331 17.0223 18.0336C18.2151 18.8589 19.6336 19.3014 21.0869 19.3014C22.5403 19.3014 23.9588 18.8589 25.1516 18.0336ZM25.1516 24.0032C25.7961 23.5042 26.5948 23.2432 27.4114 23.2648H29.0959V19.9264H27.4114C25.9731 19.9091 24.5676 20.3541 23.4044 21.1952C22.7497 21.6749 21.9578 21.9337 21.1445 21.9337C20.3312 21.9337 19.5392 21.6749 18.8846 21.1952C17.6918 20.3698 16.2733 19.9273 14.82 19.9273C13.3666 19.9273 11.9481 20.3698 10.7553 21.1952C10.1007 21.6749 9.30878 21.9337 8.49548 21.9337C7.68218 21.9337 6.89023 21.6749 6.23561 21.1952C5.05796 20.3433 3.63235 19.8977 2.17621 19.9264H0.439453V23.2648H2.12389C2.94049 23.2432 3.73927 23.5042 4.38377 24.0032C5.57439 24.8291 6.9913 25.2719 8.44317 25.2719C9.89503 25.2719 11.3119 24.8291 12.5026 24.0032C13.1479 23.5058 13.9461 23.245 14.7624 23.2648C15.5793 23.2415 16.3786 23.5027 17.0223 24.0032C18.2151 24.8285 19.6336 25.271 21.0869 25.271C22.5403 25.271 23.9588 24.8285 25.1516 24.0032Z" fill="white" fill-opacity="0.45"/>
</svg>
