<svg width="135" height="31" viewBox="0 0 135 31" fill="none" xmlns="http://www.w3.org/2000/svg">
<path d="M38.7007 9.47307H42.0772V23.1231H38.7007V9.47307ZM43.4235 17.9886C43.4235 14.6076 45.5273 12.5811 48.6829 12.5811C51.8384 12.5811 53.9422 14.6076 53.9422 17.9886C53.9422 21.3696 51.9121 23.4171 48.6829 23.4171C45.4536 23.4171 43.4235 21.4431 43.4235 17.9886ZM50.5972 17.9886C50.5972 16.1301 49.8715 15.0381 48.7144 15.0381C47.5574 15.0381 46.8421 16.0881 46.8421 17.9886C46.8421 19.8891 47.5574 20.9286 48.7144 20.9286C49.8715 20.9286 50.6183 19.8891 50.6183 17.9991L50.5972 17.9886ZM55.2885 23.8266H58.5493C58.6978 24.177 58.957 24.4693 59.2875 24.6589C59.618 24.8485 60.0015 24.9249 60.3796 24.8766C61.6734 24.8766 62.3465 24.1836 62.3465 23.1546V21.2646H62.3571C62.0784 21.8531 61.6278 22.3436 61.0646 22.6716C60.5013 22.9996 59.8518 23.1496 59.2015 23.1021C56.7296 23.1021 55.0887 21.2226 55.0887 17.9886C55.0887 14.7546 56.656 12.7386 59.2961 12.7386C59.9631 12.7029 60.6248 12.8747 61.19 13.2301C61.7551 13.5855 62.1959 14.1071 62.4517 14.7231H62.3571V12.8226H65.702V23.0496C65.702 25.5171 63.5141 27.0606 60.2954 27.0606C57.3712 27.0501 55.4989 25.7166 55.3096 23.8371L55.2885 23.8266ZM62.3571 17.9886C62.3571 16.3401 61.5997 15.3006 60.4006 15.3006C59.2015 15.3006 58.4652 16.3506 58.4652 17.9886C58.4652 19.6266 59.191 20.5926 60.4006 20.5926C61.6102 20.5926 62.3571 19.7001 62.3571 17.9886ZM67.0378 17.9886C67.0378 14.6076 69.1416 12.5811 72.2972 12.5811C75.4527 12.5811 77.5565 14.6076 77.5565 17.9886C77.5565 21.3696 75.5159 23.4171 72.2972 23.4171C69.0785 23.4171 67.0589 21.4431 67.0589 17.9886H67.0378ZM74.2115 17.9886C74.2115 16.1301 73.4752 15.0381 72.3287 15.0381C71.1822 15.0381 70.4564 16.0881 70.4564 17.9886C70.4564 19.8891 71.1717 20.9286 72.3287 20.9286C73.4858 20.9286 74.2326 19.8891 74.2326 17.9991L74.2115 17.9886ZM78.9239 10.3341C78.9092 9.99074 78.9977 9.65088 79.1781 9.3582C79.3585 9.06551 79.6225 8.8334 79.9362 8.69173C80.2498 8.55005 80.5987 8.50529 80.9381 8.5632C81.2774 8.62111 81.5916 8.77904 81.8403 9.01668C82.089 9.25432 82.2607 9.56079 82.3335 9.89667C82.4062 10.2326 82.3766 10.5825 82.2485 10.9014C82.1204 11.2204 81.8996 11.4938 81.6145 11.6865C81.3295 11.8791 80.9932 11.9823 80.6489 11.9826C80.4289 11.9882 80.21 11.9501 80.0049 11.8705C79.7997 11.7909 79.6125 11.6715 79.454 11.5191C79.2954 11.3667 79.1688 11.1844 79.0814 10.9828C78.994 10.7812 78.9476 10.5642 78.9449 10.3446L78.9239 10.3341ZM78.9239 12.8121H82.3424V23.1651H78.9765L78.9239 12.8121ZM94.6387 17.9886C94.6387 21.3591 93.124 23.3121 90.547 23.3121C89.8872 23.3527 89.2308 23.1902 88.6665 22.8466C88.1022 22.503 87.6571 21.9948 87.3914 21.3906H87.3283V26.4936H83.9518V12.8436H87.3072V14.6916H87.3703C87.627 14.0755 88.0677 13.5534 88.6324 13.1964C89.1971 12.8394 89.8583 12.6649 90.5259 12.6966C93.1766 12.6756 94.7018 14.6181 94.7018 17.9991L94.6387 17.9886ZM91.1991 17.9886C91.1991 16.3506 90.4313 15.2901 89.2427 15.2901C88.054 15.2901 87.3072 16.3401 87.2967 17.9886C87.2862 19.6371 88.054 20.6766 89.2427 20.6766C90.4313 20.6766 91.2622 19.7001 91.2622 17.9991L91.1991 17.9886ZM100.403 12.5706C103.232 12.5706 104.989 13.9041 105.01 16.0461H101.928C101.928 15.3006 101.308 14.8386 100.382 14.8386C99.4562 14.8386 99.0145 15.1956 99.0145 15.7311C99.0145 16.2666 99.4036 16.4346 100.182 16.5921L102.349 17.0331C104.453 17.4741 105.294 18.3141 105.294 19.8786C105.294 21.9786 103.348 23.4066 100.456 23.4066C97.5629 23.4066 95.6801 22.0206 95.5433 19.9101H98.8146C98.9093 20.6766 99.5193 21.1281 100.508 21.1281C101.497 21.1281 101.96 20.8131 101.96 20.2566C101.96 19.7001 101.644 19.6056 100.834 19.4376L98.8777 19.0281C96.8476 18.5976 95.7852 17.5371 95.7852 15.9516C95.8483 13.8936 97.6155 12.5811 100.466 12.5811L100.403 12.5706ZM116.602 23.1546H113.33V21.2121H113.267C113.084 21.86 112.685 22.4263 112.136 22.8176C111.588 23.2089 110.922 23.4018 110.248 23.3646C109.74 23.3811 109.234 23.2901 108.763 23.0976C108.292 22.9051 107.868 22.6154 107.517 22.2475C107.167 21.8797 106.898 21.442 106.729 20.9631C106.559 20.4843 106.493 19.9751 106.535 19.4691V12.8226H109.912V18.7446C109.912 19.9626 110.553 20.6241 111.605 20.6241C111.852 20.6222 112.096 20.5675 112.319 20.4637C112.543 20.3599 112.742 20.2093 112.903 20.0222C113.063 19.8351 113.181 19.6158 113.25 19.3791C113.318 19.1424 113.335 18.8938 113.299 18.6501V12.8226H116.665L116.602 23.1546ZM118.232 12.8121H121.514V14.8071H121.587C121.769 14.168 122.157 13.6069 122.692 13.2118C123.227 12.8166 123.878 12.6095 124.543 12.6231C125.211 12.5651 125.876 12.7579 126.41 13.1637C126.943 13.5696 127.305 14.1593 127.425 14.8176H127.573C127.783 14.1558 128.206 13.5819 128.777 13.185C129.347 12.7882 130.033 12.5906 130.728 12.6231C131.19 12.6055 131.65 12.6855 132.079 12.8578C132.507 13.0301 132.895 13.2908 133.215 13.6228C133.536 13.9549 133.783 14.3508 133.94 14.7847C134.097 15.2186 134.16 15.6806 134.126 16.1406V23.1651H130.728V17.0016C130.728 15.9516 130.234 15.3636 129.277 15.3636C129.064 15.3601 128.854 15.4025 128.659 15.4878C128.465 15.5732 128.291 15.6995 128.151 15.858C128.01 16.0166 127.905 16.2037 127.843 16.4065C127.782 16.6094 127.765 16.8231 127.793 17.0331V23.1651H124.575V16.9701C124.575 15.9201 124.059 15.3636 123.134 15.3636C122.919 15.3619 122.707 15.406 122.511 15.493C122.315 15.58 122.14 15.7078 121.997 15.8679C121.855 16.028 121.748 16.2167 121.685 16.4213C121.621 16.6259 121.602 16.8416 121.629 17.0541V23.1651H118.253L118.232 12.8121Z" fill="white" fill-opacity="0.45"/>
<path d="M32.0209 10.3655C32.021 8.27565 31.3888 6.23452 30.2072 4.50943C29.0255 2.78434 27.3494 1.45573 25.3985 0.697622C23.4476 -0.0604841 21.3128 -0.212736 19.2737 0.260805C17.2346 0.734347 15.3863 1.8116 13.971 3.35147H0.84375V31.0085H28.5603V18.083C29.6482 17.1117 30.5186 15.9223 31.1149 14.5925C31.7112 13.2628 32.0199 11.8224 32.0209 10.3655ZM26.688 10.3655C26.6901 11.3669 26.3945 12.3464 25.8387 13.1801C25.2828 14.0137 24.4917 14.664 23.5655 15.0487C22.6393 15.4334 21.6196 15.5351 20.6354 15.341C19.6512 15.1469 18.7468 14.6657 18.0367 13.9584C17.3266 13.251 16.8427 12.3492 16.6462 11.3672C16.4498 10.3852 16.5496 9.36703 16.933 8.44164C17.3164 7.51626 17.9662 6.72521 18.8002 6.16864C19.6342 5.61206 20.6148 5.31497 21.618 5.31497C22.9608 5.31497 24.2488 5.84674 25.1993 6.79359C26.1498 7.74044 26.6852 9.02503 26.688 10.3655ZM23.2274 25.685H6.17669V8.67497H11.3729C11.2725 9.23301 11.2197 9.79853 11.2151 10.3655C11.2179 13.1188 12.3148 15.7585 14.2651 17.7054C16.2154 19.6522 18.8599 20.7472 21.618 20.75C22.1572 20.7471 22.6954 20.7015 23.2274 20.6135V25.685Z" fill="white" fill-opacity="0.45"/>
</svg>
