<svg width="125" height="29" viewBox="0 0 125 29" fill="none" xmlns="http://www.w3.org/2000/svg">
<path d="M36.1826 8.27352H39.3382V21.01H36.1826V8.27352ZM40.5899 16.201C40.5899 13.051 42.5253 11.1715 45.5126 11.1715C48.4999 11.1715 50.4353 13.051 50.4353 16.201C50.4353 19.351 48.542 21.241 45.5126 21.241C42.4833 21.241 40.5899 19.4035 40.5899 16.201ZM47.2692 16.201C47.2692 14.4685 46.5855 13.45 45.5126 13.45C44.4397 13.45 43.7665 14.5 43.7665 16.201C43.7665 17.902 44.4292 18.931 45.5126 18.931C46.596 18.931 47.2692 17.965 47.2692 16.2115V16.201ZM51.624 21.6295H54.6533C54.7975 21.9492 55.0412 22.2139 55.3483 22.3842C55.6553 22.5545 56.0092 22.6212 56.3573 22.5745C57.5565 22.5745 58.1876 21.9235 58.1876 20.9785V19.2145H58.1245C57.873 19.7552 57.4651 20.2082 56.9532 20.5151C56.4414 20.8221 55.8491 20.9688 55.2529 20.9365C52.9493 20.9365 51.4241 19.183 51.4241 16.1695C51.4241 13.156 52.8757 11.2555 55.2949 11.2555C55.9099 11.2315 56.5175 11.3956 57.0363 11.7259C57.5552 12.0561 57.9606 12.5368 58.1981 13.1035V11.35H61.3537V20.905C61.3537 23.2045 59.3236 24.6325 56.3258 24.6325C53.5383 24.6325 51.8028 23.383 51.624 21.64V21.6295ZM58.1981 16.1905C58.1981 14.6575 57.4933 13.6915 56.3784 13.6915C55.2634 13.6915 54.5797 14.647 54.5797 16.1905C54.5797 17.734 55.2529 18.6055 56.3784 18.6055C57.5039 18.6055 58.1981 17.755 58.1981 16.201V16.1905ZM62.5423 16.1905C62.5423 13.0405 64.4777 11.161 67.465 11.161C70.4523 11.161 72.3982 13.0405 72.3982 16.1905C72.3982 19.3405 70.5049 21.2305 67.465 21.2305C64.4251 21.2305 62.5423 19.4035 62.5423 16.201V16.1905ZM69.2216 16.1905C69.2216 14.458 68.5379 13.4395 67.465 13.4395C66.3921 13.4395 65.7715 14.5 65.7715 16.2115C65.7715 17.923 66.4342 18.9415 67.5071 18.9415C68.58 18.9415 69.2216 17.965 69.2216 16.2115V16.1905ZM73.5973 9.06102C73.5891 8.74298 73.6756 8.42966 73.8459 8.16076C74.0163 7.89186 74.2627 7.6795 74.5541 7.5506C74.8455 7.4217 75.1687 7.38207 75.4826 7.43673C75.7966 7.49138 76.0872 7.63787 76.3177 7.85761C76.5482 8.07735 76.7081 8.36046 76.7772 8.67104C76.8463 8.98162 76.8215 9.30568 76.7059 9.60215C76.5902 9.89862 76.389 10.1541 76.1278 10.3363C75.8665 10.5185 75.5569 10.6192 75.2382 10.6255C75.027 10.64 74.8151 10.6107 74.6157 10.5395C74.4164 10.4683 74.2339 10.3568 74.0798 10.2118C73.9257 10.0669 73.8033 9.89169 73.7203 9.69726C73.6372 9.50283 73.5954 9.29337 73.5973 9.08202V9.06102ZM73.5973 11.371H76.7529V21.01H73.5973V11.371ZM88.2077 16.1905C88.2077 19.3405 86.8087 21.136 84.4105 21.136C83.7955 21.1754 83.1833 21.0254 82.6565 20.7061C82.1298 20.3869 81.7139 19.9138 81.4653 19.351H81.4022V24.097H78.2466V11.35H81.4022V13.072H81.4653C81.7024 12.4999 82.1103 12.0146 82.6335 11.682C83.1567 11.3495 83.7698 11.1859 84.3894 11.2135C86.8087 11.2555 88.2498 13.0615 88.2498 16.2115L88.2077 16.1905ZM85.0521 16.1905C85.0521 14.6575 84.3474 13.681 83.2429 13.681C82.1385 13.681 81.4337 14.668 81.4232 16.1905C81.4127 17.713 82.1385 18.6895 83.2429 18.6895C84.3474 18.6895 85.0521 17.734 85.0521 16.2115V16.1905ZM93.6248 11.1505C96.2439 11.1505 97.8322 12.3895 97.9059 14.374H95.0343C95.0343 13.6915 94.4663 13.261 93.5932 13.261C92.7202 13.261 92.331 13.597 92.331 14.0905C92.331 14.584 92.6781 14.7415 93.3829 14.8885L95.4024 15.298C97.3273 15.7075 98.1478 16.4845 98.1478 17.944C98.1478 19.939 96.3281 21.22 93.6458 21.22C90.9636 21.22 89.207 19.939 89.0702 17.9755H92.1101C92.2048 18.6895 92.7728 19.1095 93.6984 19.1095C94.6241 19.1095 95.0448 18.805 95.0448 18.301C95.0448 17.797 94.7503 17.692 93.9929 17.5345L92.1732 17.146C90.2904 16.7575 89.3016 15.76 89.3016 14.29C89.3227 12.4 91.0162 11.1715 93.6248 11.1715V11.1505ZM108.677 20.989H105.637V19.1935H105.574C105.407 19.7963 105.038 20.324 104.529 20.6888C104.02 21.0536 103.402 21.2336 102.776 21.199C102.297 21.2262 101.817 21.1504 101.369 20.9766C100.922 20.8029 100.517 20.5353 100.182 20.1919C99.8467 19.8485 99.5894 19.4373 99.4273 18.9861C99.2651 18.5349 99.2018 18.0542 99.2417 17.5765V11.35H102.397V16.852C102.397 17.9965 102.986 18.6055 103.965 18.6055C104.194 18.606 104.421 18.5575 104.63 18.4633C104.839 18.3691 105.025 18.2314 105.177 18.0594C105.328 17.8874 105.441 17.685 105.508 17.4659C105.574 17.2468 105.593 17.016 105.563 16.789V11.35H108.719L108.677 20.989ZM110.202 11.35H113.253V13.2085H113.316C113.483 12.6137 113.843 12.091 114.34 11.7224C114.837 11.3539 115.442 11.1601 116.061 11.1715C116.691 11.1212 117.316 11.3093 117.813 11.6984C118.31 12.0875 118.642 12.6491 118.743 13.2715H118.806C118.997 12.6425 119.392 12.0948 119.929 11.7146C120.466 11.3343 121.115 11.1433 121.773 11.1715C122.202 11.1571 122.629 11.233 123.027 11.3943C123.425 11.5555 123.784 11.7985 124.082 12.1075C124.379 12.4165 124.609 12.7845 124.754 13.1876C124.9 13.5908 124.959 14.02 124.928 14.4475V21.01H121.773V15.2875C121.773 14.2375 121.299 13.7545 120.416 13.7545C120.219 13.7529 120.024 13.7934 119.844 13.8734C119.664 13.9534 119.503 14.071 119.372 14.2183C119.242 14.3656 119.144 14.5391 119.087 14.7272C119.029 14.9153 119.012 15.1135 119.038 15.3085V21.01H116.04V15.2455C116.04 14.2795 115.567 13.7545 114.704 13.7545C114.505 13.7546 114.308 13.7968 114.126 13.8784C113.944 13.9601 113.782 14.0792 113.65 14.2281C113.518 14.3769 113.419 14.552 113.359 14.7419C113.3 14.9317 113.281 15.132 113.305 15.3295V21.01H110.15L110.202 11.35Z" fill="white" fill-opacity="0.45"/>
<path d="M27.3573 8.60074C26.822 7.37891 26.1135 6.24027 25.2536 5.21974C23.9824 3.66609 22.3959 2.3988 20.5987 1.50128C18.8015 0.603749 16.8343 0.0963363 14.8265 0.0124328C12.8187 -0.0714706 10.8158 0.270036 8.94973 1.01448C7.08366 1.75892 5.39669 2.88942 3.99984 4.33157C2.60299 5.77372 1.52794 7.49483 0.845438 9.3816C0.162936 11.2684 -0.11154 13.278 0.0400764 15.2783C0.191693 17.2786 0.765965 19.2242 1.72509 20.987C2.68422 22.7498 4.00646 24.2898 5.60479 25.5057C6.63036 26.3015 7.76358 26.9484 8.97075 27.4272C10.6632 28.1196 12.4746 28.4762 14.3037 28.4772C18.0792 28.4689 21.6975 26.9666 24.3652 24.2996C27.033 21.6326 28.5326 18.0186 28.5354 14.2497C28.5381 12.3057 28.137 10.3822 27.3573 8.60074ZM14.2932 2.89924C15.9357 2.89906 17.5584 3.25743 19.0476 3.94924C18.6844 4.10586 18.3026 4.21526 17.9116 4.27474C16.6247 4.46069 15.4326 5.05707 14.5132 5.97487C13.5938 6.89267 12.9963 8.08266 12.81 9.36724C12.7283 10.0877 12.4 10.7579 11.8807 11.2648C11.3614 11.7717 10.6828 12.0843 9.95949 12.1497C8.67264 12.3357 7.48054 12.9321 6.56111 13.8499C5.64168 14.7677 5.04424 15.9577 4.85796 17.2422C4.7949 17.9272 4.50211 18.571 4.02699 19.0692C3.20723 17.3402 2.83897 15.4322 2.95649 13.5228C3.074 11.6135 3.67346 9.76487 4.6991 8.14897C5.72474 6.53307 7.14321 5.20243 8.82251 4.28088C10.5018 3.35932 12.3874 2.87681 14.3037 2.87824L14.2932 2.89924ZM5.59427 21.5997C5.72049 21.4842 5.84672 21.3792 5.97294 21.2532C6.90873 20.3476 7.50941 19.152 7.67696 17.8617C7.74489 17.1364 8.0693 16.459 8.59207 15.9507C9.09512 15.428 9.77223 15.1069 10.4959 15.0477C11.7828 14.8618 12.9749 14.2654 13.8943 13.3476C14.8138 12.4298 15.4112 11.2398 15.5975 9.95524C15.643 9.19663 15.9691 8.48192 16.5126 7.94974C17.0281 7.43718 17.7116 7.1277 18.4375 7.07824C19.6197 6.91587 20.7223 6.39124 21.5931 5.57674C22.5846 6.39791 23.4247 7.38578 24.0755 8.49574C24.0355 8.54965 23.9896 8.59896 23.9387 8.64274C23.4367 9.17004 22.7604 9.49824 22.0349 9.56674C20.7467 9.74944 19.5528 10.3448 18.6328 11.2632C17.7127 12.1816 17.1164 13.3733 16.9333 14.6592C16.8592 15.3821 16.537 16.0571 16.0213 16.57C15.5057 17.0828 14.8282 17.4019 14.1038 17.4732C12.8132 17.6578 11.6167 18.253 10.6919 19.1704C9.76717 20.0878 9.16355 21.2786 8.97075 22.5657C8.91414 23.0789 8.73759 23.5716 8.45533 24.0042C7.37612 23.3646 6.40955 22.5523 5.59427 21.5997ZM14.2932 25.6527C13.2258 25.6539 12.1636 25.5054 11.1376 25.2117C11.4885 24.5586 11.7167 23.8469 11.8108 23.1117C11.8845 22.3905 12.2052 21.7167 12.7187 21.2041C13.2323 20.6914 13.9072 20.3713 14.6298 20.2977C15.9185 20.1139 17.113 19.5184 18.0345 18.6004C18.956 17.6825 19.555 16.4913 19.7418 15.2052C19.8155 14.484 20.1362 13.8102 20.6498 13.2976C21.1633 12.7849 21.8383 12.4648 22.5608 12.3912C23.5306 12.2653 24.455 11.9049 25.2536 11.3412C25.697 13.019 25.7495 14.7759 25.4071 16.4772C25.0647 18.1784 24.3365 19.7787 23.2783 21.1553C22.2201 22.532 20.8601 23.6484 19.3026 24.4189C17.7451 25.1894 16.0314 25.5935 14.2932 25.6002V25.6527Z" fill="white" fill-opacity="0.45"/>
</svg>
