<svg width="137" height="32" viewBox="0 0 137 32" fill="none" xmlns="http://www.w3.org/2000/svg">
<path fill-rule="evenodd" clip-rule="evenodd" d="M14.3928 0.523926V5.02892C11.5055 5.02892 8.73636 6.18479 6.69469 8.24226C4.65303 10.2997 3.50603 13.0902 3.50603 15.9999C3.50603 18.9096 4.65303 21.7001 6.69469 23.7576C8.73636 25.815 11.5055 26.9709 14.3928 26.9709V31.4759H0.297852V0.523926H14.3928ZM14.3928 26.9709L14.3928 5.02893C17.2801 5.02893 20.0492 6.1848 22.0909 8.24226C24.1325 10.2997 25.2795 13.0902 25.2795 15.9999C25.2795 18.9096 24.1325 21.7001 22.0909 23.7576C20.0492 25.8151 17.2801 26.9709 14.3928 26.9709ZM36.3452 7.78491H33.1896V23.1019H36.3452V7.78491ZM39.0452 14.7599C38.437 15.6757 38.1123 16.7529 38.1123 17.8549C38.1024 18.5858 38.2375 19.3112 38.5096 19.9888C38.7816 20.6664 39.1852 21.2824 39.6966 21.8007C40.208 22.319 40.817 22.7292 41.4878 23.0073C42.1586 23.2853 42.8777 23.4256 43.603 23.4199C44.6965 23.4262 45.7673 23.1052 46.6795 22.4975C47.5918 21.8899 48.3045 21.023 48.7273 20.0067C49.1502 18.9904 49.264 17.8704 49.0545 16.7888C48.845 15.7072 48.3216 14.7127 47.5505 13.9312C46.7795 13.1498 45.7956 12.6166 44.7235 12.3993C43.6515 12.1819 42.5395 12.2903 41.5286 12.7105C40.5177 13.1308 39.6534 13.844 39.0452 14.7599ZM45.5878 16.53C45.8587 16.9189 46.0098 17.3798 46.0223 17.8549H46.0012C46.0186 18.1781 45.9697 18.5014 45.8575 18.8046C45.7453 19.1079 45.5723 19.3845 45.3492 19.6173C45.1261 19.8501 44.8577 20.034 44.5609 20.1576C44.264 20.2811 43.9451 20.3416 43.624 20.3353C43.1524 20.3351 42.6913 20.1948 42.2984 19.932C41.9055 19.6691 41.5982 19.2954 41.415 18.8575C41.2318 18.4195 41.1807 17.9369 41.2683 17.4699C41.3558 17.0029 41.578 16.5723 41.9071 16.2319C42.2363 15.8915 42.6577 15.6565 43.1186 15.5561C43.5796 15.4558 44.0597 15.4947 44.4989 15.6679C44.9381 15.8411 45.3168 16.141 45.5878 16.53ZM61.5794 12.6079V22.5825C61.5794 26.1017 58.8445 27.5963 56.0781 27.5963C55.1024 27.677 54.1236 27.4816 53.252 27.0321C52.3805 26.5827 51.6507 25.897 51.1449 25.0523L53.8061 23.5047C54.0218 23.9428 54.3648 24.3043 54.7895 24.541C55.2142 24.7778 55.7004 24.8784 56.1833 24.8297C56.491 24.8679 56.8032 24.8371 57.0976 24.7395C57.3921 24.6419 57.6615 24.48 57.8866 24.2653C58.1118 24.0506 58.287 23.7884 58.3999 23.4975C58.5127 23.2066 58.5604 22.8941 58.5395 22.5825V21.6179C58.1723 22.0665 57.7063 22.4228 57.1787 22.6583C56.651 22.8938 56.0761 23.0021 55.4996 22.9747C54.1047 22.9747 52.767 22.4163 51.7807 21.4223C50.7944 20.4284 50.2403 19.0803 50.2403 17.6747C50.2403 16.269 50.7944 14.9209 51.7807 13.927C52.767 12.9331 54.1047 12.3747 55.4996 12.3747C56.0761 12.3472 56.651 12.4555 57.1787 12.691C57.7063 12.9266 58.1723 13.2828 58.5395 13.7315V12.6715L61.5794 12.6079ZM58.5395 17.6429C58.5605 17.1357 58.4304 16.6339 58.1661 16.2018C57.9018 15.7697 57.5152 15.4272 57.0562 15.2183C56.5972 15.0094 56.0866 14.9437 55.5902 15.0295C55.0938 15.1154 54.6342 15.3489 54.2705 15.7001C53.9069 16.0513 53.6558 16.5041 53.5495 17.0003C53.4433 17.4964 53.4868 18.0133 53.6744 18.4843C53.8619 18.9554 54.1851 19.3591 54.6022 19.6436C55.0193 19.9282 55.5113 20.0804 56.015 20.0809C56.3437 20.1047 56.6736 20.0588 56.9836 19.9462C57.2936 19.8336 57.5767 19.6566 57.8146 19.4269C58.0525 19.1971 58.2399 18.9196 58.3648 18.6123C58.4897 18.305 58.5492 17.9748 58.5395 17.6429ZM64.2883 14.762C63.6811 15.6774 63.3569 16.7537 63.3569 17.8549C63.3485 18.5871 63.4852 19.3137 63.7591 19.992C64.033 20.6704 64.4385 21.2868 64.9518 21.8051C65.4652 22.3234 66.0761 22.7332 66.7487 23.0105C67.4213 23.2878 68.142 23.427 68.8687 23.4199C69.9613 23.4219 71.03 23.0973 71.9396 22.4871C72.8491 21.8769 73.5585 21.0085 73.9781 19.9918C74.3977 18.9752 74.5085 17.8559 74.2967 16.7757C74.0848 15.6955 73.5597 14.7029 72.7878 13.9236C72.0159 13.1442 71.0319 12.6132 69.9604 12.3976C68.8889 12.182 67.778 12.2916 66.7684 12.7125C65.7587 13.1333 64.8956 13.8466 64.2883 14.762ZM70.8317 16.5288C71.1031 16.918 71.2545 17.3793 71.2669 17.8549H71.2564C71.2738 18.178 71.2249 18.5013 71.1127 18.8046C71.0005 19.1078 70.8275 19.3845 70.6044 19.6173C70.3813 19.8501 70.1129 20.034 69.8161 20.1575C69.5192 20.2811 69.2003 20.3416 68.8792 20.3353C68.4072 20.3372 67.945 20.1987 67.5508 19.9371C67.1565 19.6755 66.8476 19.3025 66.6628 18.8648C66.4779 18.427 66.4254 17.9441 66.5117 17.4764C66.5981 17.0087 66.8195 16.5771 67.1482 16.2357C67.4768 15.8942 67.8982 15.6581 68.3595 15.557C68.8207 15.4558 69.3013 15.494 69.7411 15.6669C70.1809 15.8398 70.5602 16.1396 70.8317 16.5288ZM75.8426 9.79885C75.8426 9.42568 75.9524 9.06088 76.1581 8.7506C76.3639 8.44032 76.6563 8.19848 76.9984 8.05567C77.3405 7.91287 77.717 7.8755 78.0802 7.9483C78.4434 8.02111 78.777 8.20081 79.0388 8.46468C79.3007 8.72855 79.479 9.06475 79.5512 9.43075C79.6235 9.79676 79.5864 10.1761 79.4447 10.5209C79.303 10.8657 79.063 11.1603 78.7551 11.3677C78.4472 11.575 78.0852 11.6857 77.7149 11.6857C77.22 11.6801 76.747 11.4796 76.397 11.1269C76.0471 10.7743 75.8481 10.2976 75.8426 9.79885ZM76.1476 12.6079H79.3032V23.1019H76.1476V12.6079ZM92.5091 19.9089C92.7425 19.2509 92.8445 18.5528 92.8091 17.8549C92.8402 17.1596 92.7351 16.4649 92.4997 15.8106C92.2644 15.1562 91.9035 14.5549 91.4376 14.0411C90.9717 13.5273 90.4099 13.111 89.7843 12.816C89.1588 12.521 88.4817 12.353 87.7917 12.3217C87.2046 12.2802 86.6158 12.3731 86.0693 12.5933C85.5228 12.8136 85.0329 13.1556 84.6361 13.5937V12.6079H81.4805V27.3207H84.6361V22.1373C85.0324 22.5767 85.5219 22.9203 86.0683 23.1424C86.6147 23.3644 87.2038 23.4593 87.7917 23.4199C88.4845 23.3887 89.1643 23.2197 89.792 22.9227C90.4197 22.6257 90.9829 22.2065 91.4492 21.6893C91.9155 21.172 92.2757 20.567 92.5091 19.9089ZM89.2041 16.4818C89.4847 16.8849 89.6411 17.3626 89.6535 17.8549C89.6775 18.1917 89.6306 18.5297 89.5159 18.847C89.4012 19.1642 89.2212 19.4534 88.9878 19.6956C88.7544 19.9378 88.4729 20.1275 88.1616 20.2524C87.8503 20.3773 87.5164 20.4344 87.1816 20.4201C86.6929 20.422 86.2146 20.2786 85.8064 20.0077C85.3983 19.7368 85.0786 19.3505 84.8874 18.8973C84.6962 18.4441 84.642 17.9441 84.7316 17.4599C84.8212 16.9758 85.0506 16.5291 85.391 16.1758C85.7315 15.8225 86.1678 15.5783 86.6454 15.4738C87.123 15.3694 87.6206 15.4093 88.0757 15.5886C88.5309 15.7679 88.9234 16.0786 89.2041 16.4818ZM102.413 19.9537C102.413 22.3705 100.309 23.3987 98.0789 23.3987C97.1694 23.4812 96.2562 23.2869 95.4574 22.841C94.6586 22.395 94.0109 21.7179 93.598 20.8971L96.3118 19.3495C96.4193 19.7277 96.6524 20.0573 96.9722 20.283C97.2919 20.5088 97.6789 20.617 98.0684 20.5897C98.8152 20.5897 99.1939 20.3565 99.1939 19.9325C99.1939 19.516 98.5281 19.3295 97.6767 19.091C96.1662 18.6679 94.0713 18.0812 94.0713 15.7561C94.0713 13.4665 95.9857 12.3217 98.1525 12.3217C98.9762 12.2845 99.7944 12.4728 100.52 12.8666C101.246 13.2604 101.853 13.845 102.276 14.5583L99.562 15.9999C99.4421 15.7264 99.2462 15.4938 98.998 15.3302C98.7497 15.1665 98.4597 15.0788 98.163 15.0777C97.6161 15.0777 97.29 15.2897 97.29 15.6607C97.29 16.0935 97.9472 16.2693 98.7909 16.495C100.302 16.8993 102.413 17.4637 102.413 19.9537ZM113.846 23.1019V12.6079H110.733V18.3849C110.733 19.8265 109.933 20.5049 108.797 20.5049C108.548 20.52 108.299 20.4803 108.066 20.3887C107.833 20.2971 107.623 20.1557 107.45 19.9742C107.277 19.7928 107.145 19.5757 107.064 19.3379C106.982 19.1001 106.953 18.8473 106.978 18.5969V12.6079H103.822V19.0739C103.822 21.9041 105.621 23.4199 107.724 23.4199C108.286 23.452 108.846 23.3508 109.362 23.1243C109.877 22.8978 110.332 22.5525 110.691 22.1161V23.1019H113.846ZM131.728 16.657V23.1018H128.572V16.9326C128.572 15.8726 128.078 15.2154 127.079 15.2154C126.079 15.2154 125.448 15.9468 125.448 17.187V23.1018H122.293V16.9326C122.293 15.8726 121.798 15.2154 120.799 15.2154C119.8 15.2154 119.169 15.9468 119.169 17.187V23.1018H116.013V12.6078H119.169V13.5724C119.495 13.1463 119.922 12.8088 120.411 12.5904C120.899 12.3721 121.434 12.2797 121.967 12.3216C122.5 12.2936 123.032 12.4059 123.51 12.6475C123.987 12.889 124.394 13.2516 124.691 13.6996C125.038 13.2316 125.496 12.8597 126.024 12.6187C126.552 12.3777 127.132 12.2755 127.71 12.3216C130.171 12.3216 131.728 14.0388 131.728 16.657ZM136.693 10.2123C136.693 11.5002 135.657 12.5443 134.379 12.5443C133.101 12.5443 132.065 11.5002 132.065 10.2123C132.065 8.92432 133.101 7.88025 134.379 7.88025C135.657 7.88025 136.693 8.92432 136.693 10.2123Z" fill="white" fill-opacity="0.45"/>
</svg>
