<svg width="142" height="29" viewBox="0 0 142 29" fill="none" xmlns="http://www.w3.org/2000/svg">
<path d="M21.3346 12.7895C20.9381 13.1899 20.6344 13.6731 20.4453 14.2046C20.2561 14.7362 20.1861 15.3031 20.2402 15.865L20.2214 15.8461C20.277 16.5074 20.1882 17.173 19.961 17.7963C19.7339 18.4196 19.3739 18.9857 18.9063 19.455C18.4387 19.9243 17.8746 20.2855 17.2535 20.5135C16.6324 20.7414 15.9693 20.8306 15.3103 20.7748L15.3291 20.7937C14.5409 20.72 13.7491 20.8922 13.0619 21.2867C12.3747 21.6811 11.8255 22.2787 11.4891 22.9979C11.1527 23.7172 11.0455 24.523 11.1822 25.3056C11.3188 26.0882 11.6927 26.8094 12.2527 27.371C12.8128 27.9325 13.5318 28.3071 14.3117 28.4435C15.0916 28.5799 15.8944 28.4716 16.6108 28.1334C17.3271 27.7951 17.9221 27.2434 18.3145 26.5533C18.707 25.8633 18.8778 25.0686 18.8037 24.2776L18.8236 24.2965C18.768 23.6351 18.8568 22.9696 19.084 22.3463C19.3111 21.7229 19.671 21.1569 20.1387 20.6876C20.6063 20.2183 21.1703 19.857 21.7914 19.6291C22.4125 19.4011 23.0757 19.312 23.7347 19.3678L23.7148 19.3489C24.3587 19.407 25.0068 19.301 25.5991 19.0408C26.1913 18.7806 26.7085 18.3746 27.1028 17.8604C27.4971 17.3462 27.7556 16.7404 27.8544 16.0992C27.9533 15.458 27.8893 14.8021 27.6683 14.1924C27.4473 13.5826 27.0766 13.0387 26.5904 12.6111C26.1042 12.1834 25.5183 11.8858 24.8869 11.7459C24.2556 11.606 23.5994 11.6283 22.9789 11.8108C22.3585 11.9932 21.794 12.3298 21.3377 12.7895H21.3346Z" fill="#232536"/>
<path d="M13.6163 18.3178L13.5964 18.2989C14.1565 18.3555 14.7221 18.2865 15.2524 18.0969C15.7827 17.9073 16.2643 17.6018 16.6625 17.2024C17.0607 16.8031 17.3655 16.32 17.5549 15.788C17.7442 15.2559 17.8134 14.6883 17.7574 14.1262L17.7772 14.1451C17.7216 13.4837 17.8105 12.8182 18.0376 12.1949C18.2647 11.5715 18.6247 11.0055 19.0923 10.5362C19.5599 10.0669 20.124 9.70563 20.7451 9.47768C21.3662 9.24974 22.0293 9.16056 22.6883 9.21639L22.6684 9.19749C23.4568 9.27179 24.2488 9.10022 24.9364 8.70619C25.624 8.31217 26.1737 7.71486 26.5106 6.99575C26.8475 6.27664 26.9552 5.47073 26.8189 4.68795C26.6827 3.90516 26.3091 3.18362 25.7493 2.62173C25.1894 2.05984 24.4704 1.68495 23.6904 1.54821C22.9104 1.41147 22.1074 1.51953 21.3909 1.85765C20.6743 2.19577 20.0792 2.74749 19.6865 3.43755C19.2939 4.12762 19.123 4.92243 19.197 5.71359L19.1782 5.69363C19.234 6.35502 19.1452 7.02066 18.9182 7.64407C18.6911 8.26748 18.3312 8.83362 17.8635 9.30297C17.3958 9.77231 16.8317 10.1335 16.2105 10.3614C15.5894 10.5893 14.9261 10.6783 14.2671 10.6223L14.2859 10.6423C13.7258 10.5857 13.1602 10.6546 12.6299 10.8443C12.0997 11.0339 11.618 11.3394 11.2198 11.7387C10.8216 12.1381 10.5168 12.6212 10.3275 13.1532C10.1381 13.6852 10.069 14.2529 10.125 14.815L10.1061 14.7961C10.1616 15.4574 10.0726 16.1229 9.8454 16.7461C9.6182 17.3693 9.25826 17.9353 8.79067 18.4046C8.32308 18.8739 7.75911 19.2351 7.1381 19.4631C6.51709 19.6911 5.85399 19.7804 5.19505 19.7248L5.21388 19.7437C4.42555 19.6694 3.63358 19.841 2.94598 20.235C2.25838 20.629 1.70863 21.2263 1.37172 21.9454C1.03481 22.6645 0.927134 23.4704 1.06339 24.2532C1.19964 25.036 1.57318 25.7576 2.13307 26.3195C2.69295 26.8813 3.41192 27.2562 4.19191 27.393C4.97189 27.5297 5.77492 27.4216 6.49147 27.0835C7.20801 26.7454 7.80318 26.1937 8.1958 25.5036C8.58841 24.8136 8.75937 24.0187 8.68534 23.2276L8.70521 23.2465C8.64959 22.5851 8.73844 21.9196 8.96558 21.2963C9.19271 20.6729 9.55265 20.1069 10.0203 19.6376C10.4879 19.1683 11.052 18.807 11.673 18.5791C12.2941 18.3511 12.9573 18.262 13.6163 18.3178Z" fill="#232536"/>
<path d="M6.60443 16.2105C7.00098 15.8102 7.30458 15.327 7.49358 14.7954C7.68257 14.2638 7.75229 13.6968 7.69776 13.135L7.71763 13.1539C7.66196 12.4924 7.75086 11.8266 7.97812 11.2032C8.20537 10.5797 8.56551 10.0135 9.03337 9.54415C9.50123 9.07481 10.0655 8.71362 10.6869 8.48582C11.3083 8.25801 11.9717 8.16908 12.6308 8.22523L12.6109 8.20633C13.399 8.28043 14.1906 8.10877 14.8779 7.71477C15.5652 7.32077 16.1147 6.72361 16.4514 6.00472C16.7881 5.28583 16.8957 4.48022 16.7594 3.69773C16.6232 2.91524 16.2497 2.19397 15.6901 1.63228C15.1304 1.0706 14.4117 0.695833 13.632 0.559098C12.8523 0.422363 12.0496 0.530314 11.3332 0.868229C10.6169 1.20614 10.0219 1.75757 9.6293 2.44732C9.2367 3.13706 9.06566 3.93155 9.13949 4.72243L9.12066 4.70353C9.17628 5.36488 9.08743 6.03044 8.86029 6.65376C8.63316 7.27708 8.27322 7.84315 7.80559 8.31245C7.33796 8.78176 6.77392 9.14299 6.15282 9.37094C5.53173 9.59889 4.86854 9.68806 4.20956 9.63223L4.2284 9.65113C3.5845 9.59318 2.93645 9.69928 2.3443 9.9596C1.75214 10.2199 1.23504 10.626 0.840903 11.1403C0.44677 11.6546 0.18836 12.2604 0.0896203 12.9015C-0.00911986 13.5427 0.0550038 14.1985 0.27605 14.8082C0.497095 15.4179 0.867912 15.9618 1.35414 16.3893C1.84036 16.8169 2.42626 17.1144 3.05754 17.2542C3.68882 17.3941 4.34506 17.3717 4.96545 17.1893C5.58583 17.0068 6.15029 16.6702 6.60652 16.2105H6.60443Z" fill="#232536"/>
<path d="M39.014 5.73767H42.1214V20.9133H39.014V5.73767Z" fill="#232536"/>
<path d="M43.8813 15.7169C43.8769 14.6264 44.1952 13.559 44.7957 12.6501C45.3963 11.7412 46.2521 11.0317 47.2548 10.6113C48.2576 10.1909 49.362 10.0787 50.4284 10.2887C51.4947 10.4988 52.4749 11.0218 53.2449 11.7914C54.0148 12.561 54.5398 13.5426 54.7534 14.6119C54.967 15.6812 54.8596 16.7901 54.4448 17.7981C54.0299 18.8061 53.3263 19.6678 52.4231 20.2742C51.5198 20.8806 50.4576 21.2042 49.3709 21.2042C48.6496 21.2125 47.9338 21.0764 47.2655 20.8038C46.5972 20.5312 45.9897 20.1277 45.4786 19.6168C44.9675 19.1059 44.563 18.4979 44.2887 17.8283C44.0144 17.1587 43.8759 16.4409 43.8813 15.7169ZM51.7532 15.7169C51.7403 15.2469 51.5895 14.791 51.3198 14.4065C51.0501 14.0219 50.6735 13.7257 50.237 13.5547C49.8004 13.3838 49.3234 13.3459 48.8654 13.4456C48.4075 13.5453 47.989 13.7783 47.6623 14.1154C47.3356 14.4525 47.1151 14.8787 47.0285 15.3409C46.9419 15.8031 46.9929 16.2806 47.1752 16.7138C47.3576 17.147 47.6631 17.5166 48.0536 17.7765C48.4441 18.0364 48.9023 18.175 49.3709 18.175C49.6918 18.1836 50.011 18.1254 50.3084 18.004C50.6058 17.8826 50.8748 17.7007 51.0987 17.4698C51.3225 17.2388 51.4962 16.9639 51.6089 16.6622C51.7215 16.3605 51.7707 16.0386 51.7532 15.7169Z" fill="#232536"/>
<path d="M67.245 10.5195V20.3895C67.245 23.8818 64.531 25.3581 61.7762 25.3581C60.8063 25.4309 59.8351 25.2343 58.9692 24.7898C58.1032 24.3453 57.376 23.67 56.8672 22.8381L59.5184 21.2998C59.7323 21.7335 60.073 22.0913 60.495 22.3253C60.917 22.5593 61.4001 22.6583 61.8798 22.6092C62.1863 22.6518 62.4985 22.6247 62.7932 22.5299C63.0879 22.4351 63.3576 22.275 63.5823 22.0615C63.8071 21.8479 63.9811 21.5864 64.0915 21.2963C64.2019 21.0061 64.2459 20.6948 64.2202 20.3853V19.435C63.8564 19.8818 63.3932 20.2368 62.8679 20.4715C62.3427 20.7062 61.7699 20.814 61.1955 20.7864C59.8289 20.7431 58.5327 20.1679 57.5813 19.1824C56.6298 18.197 56.0978 16.8786 56.0978 15.5065C56.0978 14.1343 56.6298 12.8159 57.5813 11.8305C58.5327 10.845 59.8289 10.2698 61.1955 10.2265C61.7699 10.1989 62.3427 10.3067 62.8679 10.5414C63.3932 10.7761 63.8564 11.1311 64.2202 11.5779V10.5174L67.245 10.5195ZM64.2213 15.508C64.2422 15.0055 64.1127 14.5081 63.8496 14.08C63.5864 13.6519 63.2016 13.3126 62.7447 13.1058C62.2878 12.899 61.7797 12.8342 61.2858 12.9197C60.7919 13.0052 60.3347 13.237 59.9732 13.5854C59.6117 13.9339 59.3624 14.3829 59.2573 14.8747C59.1522 15.3665 59.1962 15.8787 59.3836 16.3452C59.571 16.8117 59.8932 17.2113 60.3088 17.4925C60.7244 17.7737 61.2143 17.9236 61.7155 17.923C62.042 17.9459 62.3696 17.8999 62.6773 17.788C62.985 17.676 63.266 17.5007 63.502 17.2732C63.7381 17.0457 63.924 16.7711 64.0479 16.467C64.1718 16.163 64.2309 15.8363 64.2213 15.508Z" fill="#232536"/>
<path d="M69.0048 15.7169C69.0004 14.6264 69.3187 13.559 69.9193 12.6501C70.5198 11.7412 71.3757 11.0317 72.3784 10.6113C73.3811 10.1909 74.4856 10.0787 75.5519 10.2887C76.6182 10.4988 77.5985 11.0218 78.3684 11.7914C79.1383 12.561 79.6634 13.5426 79.877 14.6119C80.0906 15.6812 79.9832 16.7901 79.5683 17.7981C79.1535 18.8061 78.4499 19.6678 77.5466 20.2742C76.6434 20.8806 75.5811 21.2042 74.4944 21.2042C73.7731 21.2125 73.0574 21.0764 72.3891 20.8038C71.7207 20.5312 71.1133 20.1277 70.6021 19.6168C70.091 19.1059 69.6865 18.4979 69.4122 17.8283C69.138 17.1587 68.9995 16.4409 69.0048 15.7169ZM76.8768 15.7169C76.8638 15.2469 76.7131 14.791 76.4434 14.4065C76.1737 14.0219 75.797 13.7257 75.3605 13.5547C74.9239 13.3838 74.4469 13.3459 73.989 13.4456C73.531 13.5453 73.1126 13.7783 72.7858 14.1154C72.4591 14.4525 72.2387 14.8787 72.152 15.3409C72.0654 15.8031 72.1165 16.2806 72.2988 16.7138C72.4811 17.147 72.7866 17.5166 73.1772 17.7765C73.5677 18.0364 74.0259 18.175 74.4944 18.175C74.8154 18.1836 75.1346 18.1254 75.4319 18.004C75.7293 17.8826 75.9984 17.7007 76.2222 17.4698C76.446 17.2388 76.6198 16.9639 76.7324 16.6622C76.8451 16.3605 76.8942 16.0386 76.8768 15.7169Z" fill="#232536"/>
<path d="M81.4331 7.73377C81.4331 7.3637 81.5425 7.00195 81.7473 6.69425C81.9522 6.38655 82.2434 6.14672 82.584 6.0051C82.9247 5.86348 83.2996 5.82643 83.6613 5.89862C84.0229 5.97082 84.3551 6.14903 84.6159 6.41071C84.8766 6.67238 85.0542 7.00578 85.1261 7.36874C85.198 7.7317 85.1611 8.10791 85.02 8.44981C84.8789 8.79171 84.6399 9.08394 84.3333 9.28953C84.0267 9.49513 83.6663 9.60487 83.2975 9.60487C82.8046 9.59995 82.3332 9.40124 81.9846 9.0514C81.636 8.70156 81.438 8.22849 81.4331 7.73377ZM81.747 10.5194H84.8554V20.9144H81.7428L81.747 10.5194Z" fill="#232536"/>
<path d="M98.2725 15.7169C98.3084 16.4039 98.2086 17.0913 97.9789 17.7394C97.7492 18.3876 97.3941 18.9838 96.934 19.4937C96.4739 20.0037 95.9179 20.4173 95.298 20.7109C94.678 21.0044 94.0064 21.1721 93.3216 21.2042C92.7458 21.2358 92.1702 21.1383 91.6365 20.9189C91.1029 20.6995 90.6246 20.3637 90.2363 19.9358V25.0714H87.1289V10.5194H90.2363V11.4959C90.6248 11.0683 91.1031 10.7328 91.6368 10.5136C92.1704 10.2944 92.7459 10.1971 93.3216 10.2286C94.0065 10.2606 94.6783 10.4282 95.2984 10.7217C95.9185 11.0153 96.4746 11.429 96.9347 11.9391C97.3949 12.4492 97.75 13.0456 97.9795 13.6939C98.2091 14.3423 98.3087 15.0298 98.2725 15.7169ZM95.1651 15.7169C95.153 15.2304 94.9981 14.7583 94.72 14.3597C94.4418 13.9611 94.0527 13.6537 93.6012 13.476C93.1498 13.2982 92.6562 13.2581 92.1822 13.3605C91.7081 13.4629 91.2747 13.7034 90.9362 14.0518C90.5976 14.4002 90.369 14.8411 90.2789 15.3192C90.1888 15.7974 90.2412 16.2916 90.4297 16.74C90.6181 17.1884 90.9341 17.5711 91.3381 17.8402C91.7422 18.1092 92.2163 18.2527 92.7012 18.2527C93.0341 18.2675 93.3664 18.2116 93.6763 18.0886C93.9861 17.9655 94.2666 17.7782 94.4992 17.5387C94.7319 17.2993 94.9115 17.0132 95.0262 16.6993C95.141 16.3853 95.1883 16.0505 95.1651 15.7169Z" fill="#232536"/>
<path d="M107.861 17.7949C107.861 20.1857 105.791 21.2042 103.554 21.2042C102.65 21.2864 101.743 21.0946 100.949 20.6536C100.155 20.2126 99.5107 19.5426 99.1001 18.7304L101.792 17.1922C101.901 17.5676 102.135 17.8942 102.455 18.1174C102.775 18.3406 103.161 18.4469 103.55 18.4186C104.295 18.4186 104.668 18.1897 104.668 17.7749C104.668 16.6304 99.572 17.2342 99.572 13.6379C99.572 11.371 101.478 10.2286 103.632 10.2286C104.442 10.2029 105.244 10.3956 105.954 10.7868C106.665 11.178 107.258 11.7532 107.671 12.4525L105.02 13.8868C104.904 13.6145 104.71 13.3826 104.463 13.22C104.217 13.0573 103.928 12.9712 103.632 12.9722C103.094 12.9722 102.762 13.1822 102.762 13.5539C102.766 14.7394 107.861 13.9487 107.861 17.7949Z" fill="#232536"/>
<path d="M119.212 10.5194V20.9144H116.105V19.9369C115.746 20.3682 115.291 20.7081 114.776 20.9286C114.262 21.1491 113.702 21.2439 113.144 21.2053C111.051 21.2053 109.273 19.709 109.273 16.9003V10.5194H112.38V16.4435C112.354 16.6911 112.382 16.9414 112.462 17.177C112.542 17.4125 112.673 17.6278 112.844 17.8076C113.016 17.9875 113.224 18.1278 113.455 18.2186C113.686 18.3094 113.934 18.3486 114.182 18.3335C115.321 18.3335 116.108 17.6689 116.108 16.1926V10.5226L119.212 10.5194Z" fill="#232536"/>
<path d="M137.03 14.5316V20.9135H133.923V14.8014C133.923 13.7619 133.426 13.0973 132.432 13.0973C131.396 13.0973 130.815 13.8249 130.815 15.0513V20.9135H127.709V14.8014C127.709 13.7619 127.212 13.0973 126.217 13.0973C125.181 13.0973 124.601 13.8249 124.601 15.0513V20.9135H121.494V10.5185H124.601V11.474C124.924 11.0501 125.346 10.7139 125.831 10.4962C126.316 10.2785 126.848 10.1861 127.377 10.2276C127.909 10.2015 128.438 10.3141 128.914 10.5544C129.389 10.7948 129.794 11.1546 130.09 11.5989C130.434 11.1341 130.891 10.7645 131.416 10.5247C131.941 10.2849 132.519 10.1827 133.094 10.2276C135.472 10.2287 137.03 11.9328 137.03 14.5316Z" fill="#232536"/>
<path d="M139.658 10.4554C140.932 10.4554 141.964 9.41932 141.964 8.14122C141.964 6.86313 140.932 5.82703 139.658 5.82703C138.384 5.82703 137.352 6.86313 137.352 8.14122C137.352 9.41932 138.384 10.4554 139.658 10.4554Z" fill="#232536"/>
</svg>
