<svg width="137" height="32" viewBox="0 0 137 32" fill="none" xmlns="http://www.w3.org/2000/svg">
<path d="M33.189 7.78503H36.3446V23.102H33.189V7.78503Z" fill="#232536"/>
<path d="M38.1117 17.855C38.1117 16.753 38.4364 15.6758 39.0446 14.7599C39.6528 13.8441 40.5171 13.1308 41.5281 12.7106C42.539 12.2903 43.6509 12.182 44.723 12.3993C45.7951 12.6166 46.779 13.1498 47.55 13.9313C48.321 14.7127 48.8445 15.7073 49.054 16.7889C49.2635 17.8705 49.1496 18.9904 48.7268 20.0067C48.304 21.023 47.5913 21.8899 46.679 22.4976C45.7667 23.1052 44.696 23.4263 43.6024 23.42C42.8771 23.4257 42.158 23.2854 41.4872 23.0073C40.8164 22.7293 40.2075 22.3191 39.6961 21.8008C39.1846 21.2824 38.7811 20.6664 38.509 19.9889C38.237 19.3113 38.1019 18.5858 38.1117 17.855ZM46.0217 17.855C46.0093 17.3799 45.8582 16.919 45.5872 16.53C45.3163 16.141 44.9375 15.8412 44.4983 15.668C44.0592 15.4948 43.5791 15.4559 43.1181 15.5562C42.6571 15.6565 42.2357 15.8916 41.9066 16.232C41.5775 16.5723 41.3553 17.003 41.2677 17.47C41.1802 17.937 41.2312 18.4196 41.4144 18.8575C41.5977 19.2954 41.905 19.6692 42.2979 19.9321C42.6908 20.1949 43.1519 20.3352 43.6235 20.3354C43.9446 20.3417 44.2635 20.2812 44.5603 20.1576C44.8572 20.0341 45.1255 19.8502 45.3486 19.6174C45.5717 19.3846 45.7448 19.1079 45.857 18.8047C45.9692 18.5014 46.0181 18.1781 46.0007 17.855H46.0217Z" fill="#232536"/>
<path d="M61.5788 12.608V22.5826C61.5788 26.1018 58.844 27.5964 56.0776 27.5964C55.1018 27.6771 54.1231 27.4817 53.2515 27.0323C52.3799 26.5828 51.6502 25.8971 51.1443 25.0524L53.8056 23.5048C54.0212 23.9429 54.3642 24.3045 54.7889 24.5412C55.2136 24.7779 55.6999 24.8786 56.1828 24.8298C56.4904 24.868 56.8026 24.8372 57.0971 24.7396C57.3915 24.6421 57.661 24.4801 57.8861 24.2654C58.1112 24.0507 58.2865 23.7885 58.3993 23.4976C58.5122 23.2067 58.5599 22.8942 58.5389 22.5826V21.618C58.1717 22.0666 57.7058 22.4229 57.1781 22.6584C56.6504 22.8939 56.0755 23.0023 55.4991 22.9748C54.1042 22.9748 52.7665 22.4164 51.7802 21.4224C50.7939 20.4285 50.2397 19.0804 50.2397 17.6748C50.2397 16.2691 50.7939 14.9211 51.7802 13.9271C52.7665 12.9332 54.1042 12.3748 55.4991 12.3748C56.0755 12.3473 56.6504 12.4556 57.1781 12.6912C57.7058 12.9267 58.1717 13.2829 58.5389 13.7316V12.6716L61.5788 12.608ZM58.5389 17.643C58.5599 17.1358 58.4299 16.634 58.1656 16.2019C57.9012 15.7698 57.5147 15.4273 57.0557 15.2184C56.5966 15.0095 56.086 14.9438 55.5896 15.0296C55.0932 15.1155 54.6336 15.349 54.27 15.7002C53.9063 16.0514 53.6552 16.5042 53.549 17.0004C53.4427 17.4965 53.4862 18.0134 53.6738 18.4844C53.8614 18.9555 54.1845 19.3593 54.6016 19.6438C55.0188 19.9283 55.5108 20.0805 56.0145 20.081C56.3431 20.1048 56.6731 20.059 56.9831 19.9463C57.293 19.8337 57.5761 19.6568 57.814 19.427C58.0519 19.1973 58.2394 18.9198 58.3642 18.6125C58.4891 18.3052 58.5486 17.9749 58.5389 17.643Z" fill="#232536"/>
<path d="M63.3564 17.855C63.3564 16.7539 63.6806 15.6776 64.2879 14.7622C64.8951 13.8468 65.7582 13.1335 66.7679 12.7126C67.7775 12.2917 68.8884 12.1822 69.9599 12.3977C71.0314 12.6133 72.0154 13.1444 72.7873 13.9237C73.5592 14.7031 74.0843 15.6957 74.2962 16.7759C74.5081 17.8561 74.3972 18.9753 73.9776 19.992C73.558 21.0087 72.8486 21.8771 71.9391 22.4873C71.0296 23.0975 69.9608 23.4221 68.8682 23.42C68.1415 23.4271 67.4208 23.288 66.7482 23.0107C66.0756 22.7334 65.4647 22.3236 64.9513 21.8053C64.438 21.2869 64.0325 20.6705 63.7586 19.9922C63.4847 19.3139 63.348 18.5873 63.3564 17.855ZM71.2664 17.855C71.254 17.3795 71.1026 16.9182 70.8312 16.529C70.5598 16.1398 70.1804 15.84 69.7406 15.6671C69.3008 15.4942 68.8202 15.456 68.359 15.5571C67.8977 15.6583 67.4763 15.8944 67.1477 16.2359C66.819 16.5773 66.5976 17.0089 66.5113 17.4766C66.4249 17.9443 66.4774 18.4272 66.6623 18.8649C66.8471 19.3027 67.156 19.6757 67.5503 19.9373C67.9446 20.1988 68.4067 20.3374 68.8787 20.3354C69.1998 20.3417 69.5187 20.2812 69.8156 20.1577C70.1124 20.0342 70.3808 19.8503 70.6039 19.6175C70.827 19.3847 71 19.108 71.1122 18.8048C71.2244 18.5015 71.2733 18.1782 71.2559 17.855H71.2664Z" fill="#232536"/>
<path d="M75.842 9.79891C75.842 9.42574 75.9518 9.06094 76.1576 8.75066C76.3633 8.44038 76.6557 8.19854 76.9979 8.05573C77.34 7.91293 77.7164 7.87556 78.0796 7.94836C78.4428 8.02117 78.7764 8.20087 79.0383 8.46474C79.3001 8.72862 79.4784 9.06481 79.5507 9.43081C79.6229 9.79682 79.5858 10.1762 79.4441 10.521C79.3024 10.8657 79.0625 11.1604 78.7546 11.3677C78.4467 11.5751 78.0847 11.6857 77.7144 11.6857C77.2195 11.6802 76.7464 11.4796 76.3965 11.127C76.0465 10.7743 75.8475 10.2976 75.842 9.79891ZM76.1471 12.6079H79.3027V23.1019H76.1471V12.6079Z" fill="#232536"/>
<path d="M92.8085 17.855C92.8439 18.5529 92.742 19.251 92.5086 19.909C92.2752 20.5671 91.915 21.1721 91.4487 21.6893C90.9823 22.2065 90.4191 22.6257 89.7914 22.9227C89.1637 23.2198 88.4839 23.3887 87.7912 23.42C87.2033 23.4594 86.6142 23.3645 86.0678 23.1424C85.5214 22.9203 85.0318 22.5768 84.6356 22.1374V27.3208H81.48V12.608H84.6356V13.5938C85.0323 13.1557 85.5223 12.8137 86.0687 12.5934C86.6152 12.3731 87.204 12.2803 87.7912 12.3218C88.4811 12.3531 89.1582 12.521 89.7838 12.8161C90.4094 13.1111 90.9711 13.5274 91.437 14.0412C91.9029 14.555 92.2639 15.1562 92.4992 15.8106C92.7345 16.465 92.8396 17.1597 92.8085 17.855ZM89.653 17.855C89.6405 17.3627 89.4842 16.885 89.2035 16.4818C88.9228 16.0787 88.5303 15.768 88.0751 15.5887C87.62 15.4094 87.1224 15.3695 86.6449 15.4739C86.1673 15.5784 85.7309 15.8225 85.3905 16.1758C85.05 16.5292 84.8206 16.9759 84.731 17.46C84.6414 17.9441 84.6956 18.4441 84.8869 18.8974C85.0781 19.3506 85.3978 19.7368 85.8059 20.0077C86.214 20.2786 86.6924 20.4221 87.1811 20.4202C87.5158 20.4345 87.8498 20.3773 88.161 20.2525C88.4723 20.1276 88.7539 19.9379 88.9873 19.6956C89.2207 19.4534 89.4007 19.1642 89.5154 18.847C89.6301 18.5298 89.677 18.1917 89.653 17.855Z" fill="#232536"/>
<path d="M102.412 19.9537C102.412 22.3705 100.308 23.3987 98.0783 23.3987C97.1688 23.4812 96.2557 23.287 95.4569 22.841C94.6581 22.3951 94.0104 21.7179 93.5974 20.8971L96.3112 19.3495C96.4187 19.7278 96.6519 20.0573 96.9716 20.2831C97.2914 20.5088 97.6784 20.6171 98.0678 20.5897C98.8147 20.5897 99.1933 20.3565 99.1933 19.9325C99.1933 18.7771 94.0707 19.3919 94.0707 15.7561C94.0707 13.4665 95.9851 12.3217 98.152 12.3217C98.9756 12.2846 99.7939 12.4729 100.52 12.8667C101.246 13.2605 101.852 13.8451 102.275 14.5583L99.5615 15.9999C99.4416 15.7265 99.2457 15.4939 98.9974 15.3302C98.7491 15.1666 98.4592 15.0789 98.1625 15.0777C97.6155 15.0777 97.2895 15.2897 97.2895 15.6607C97.2895 16.8691 102.412 16.0741 102.412 19.9537Z" fill="#232536"/>
<path d="M113.846 12.608V23.102H110.69V22.1162C110.332 22.5526 109.877 22.8979 109.361 23.1244C108.846 23.3509 108.285 23.4521 107.724 23.42C105.62 23.42 103.822 21.9042 103.822 19.074V12.608H106.977V18.597C106.952 18.8474 106.982 19.1002 107.063 19.338C107.145 19.5758 107.277 19.793 107.45 19.9744C107.623 20.1558 107.833 20.2972 108.066 20.3888C108.298 20.4804 108.548 20.5201 108.797 20.505C109.933 20.505 110.732 19.8266 110.732 18.385V12.608H113.846Z" fill="#232536"/>
<path d="M131.727 16.6572V23.102H128.572V16.9328C128.572 15.8728 128.077 15.2156 127.078 15.2156C126.079 15.2156 125.448 15.947 125.448 17.1872V23.102H122.292V16.9328C122.292 15.8728 121.798 15.2156 120.799 15.2156C119.799 15.2156 119.168 15.947 119.168 17.1872V23.102H116.013V12.608H119.168V13.5726C119.495 13.1465 119.922 12.809 120.41 12.5906C120.899 12.3722 121.433 12.2799 121.966 12.3218C122.5 12.2938 123.032 12.4061 123.509 12.6476C123.987 12.8892 124.394 13.2518 124.69 13.6998C125.037 13.2318 125.496 12.8599 126.024 12.6189C126.552 12.3779 127.132 12.2757 127.709 12.3218C130.171 12.3218 131.727 14.039 131.727 16.6572Z" fill="#232536"/>
<path d="M14.3923 5.02905V0.524048H0.297363V31.476H14.3923V26.971C11.505 26.971 8.73587 25.8152 6.6942 23.7577C4.65254 21.7002 3.50554 18.9097 3.50554 16C3.50554 13.0904 4.65254 10.2998 6.6942 8.24238C8.73587 6.18492 11.505 5.02905 14.3923 5.02905Z" fill="#232536"/>
<path d="M14.3922 5.02905V26.9711C17.2796 26.9711 20.0487 25.8152 22.0903 23.7577C24.132 21.7003 25.279 18.9097 25.279 16.0001C25.279 13.0904 24.132 10.2998 22.0903 8.24238C20.0487 6.18492 17.2796 5.02905 14.3922 5.02905Z" fill="#232536"/>
<path d="M134.378 12.5444C135.656 12.5444 136.692 11.5003 136.692 10.2124C136.692 8.92444 135.656 7.88037 134.378 7.88037C133.1 7.88037 132.064 8.92444 132.064 10.2124C132.064 11.5003 133.1 12.5444 134.378 12.5444Z" fill="#232536"/>
</svg>
