<svg width="135" height="31" viewBox="0 0 135 31" fill="none" xmlns="http://www.w3.org/2000/svg">
<path d="M38.7002 9.47295H42.0767V23.1229H38.7002V9.47295ZM43.4231 17.9884C43.4231 14.6074 45.5268 12.581 48.6824 12.581C51.838 12.581 53.9417 14.6074 53.9417 17.9884C53.9417 21.3694 51.9116 23.4169 48.6824 23.4169C45.4532 23.4169 43.4231 21.4429 43.4231 17.9884ZM50.5968 17.9884C50.5968 16.1299 49.871 15.038 48.7139 15.038C47.5569 15.038 46.8416 16.0879 46.8416 17.9884C46.8416 19.8889 47.5569 20.9284 48.7139 20.9284C49.871 20.9284 50.6178 19.8889 50.6178 17.999L50.5968 17.9884ZM55.2881 23.8264H58.5488C58.6973 24.1769 58.9565 24.4692 59.287 24.6588C59.6175 24.8484 60.001 24.9248 60.3791 24.8764C61.6729 24.8764 62.3461 24.1834 62.3461 23.1544V21.2644H62.3566C62.0779 21.853 61.6274 22.3435 61.0641 22.6715C60.5009 22.9994 59.8513 23.1495 59.201 23.1019C56.7291 23.1019 55.0882 21.2224 55.0882 17.9884C55.0882 14.7544 56.6555 12.7384 59.2957 12.7384C59.9627 12.7028 60.6243 12.8746 61.1895 13.23C61.7546 13.5854 62.1955 14.107 62.4512 14.7229H62.3566V12.8225H65.7015V23.0494C65.7015 25.5169 63.5136 27.0604 60.2949 27.0604C57.3707 27.0499 55.4984 25.7164 55.3091 23.8369L55.2881 23.8264ZM62.3566 17.9884C62.3566 16.3399 61.5992 15.3005 60.4001 15.3005C59.201 15.3005 58.4647 16.3504 58.4647 17.9884C58.4647 19.6264 59.1905 20.5924 60.4001 20.5924C61.6098 20.5924 62.3566 19.6999 62.3566 17.9884ZM67.0374 17.9884C67.0374 14.6074 69.1411 12.581 72.2967 12.581C75.4523 12.581 77.556 14.6074 77.556 17.9884C77.556 21.3694 75.5154 23.4169 72.2967 23.4169C69.078 23.4169 67.0584 21.4429 67.0584 17.9884H67.0374ZM74.2111 17.9884C74.2111 16.1299 73.4748 15.038 72.3282 15.038C71.1817 15.038 70.4559 16.0879 70.4559 17.9884C70.4559 19.8889 71.1712 20.9284 72.3282 20.9284C73.4853 20.9284 74.2321 19.8889 74.2321 17.999L74.2111 17.9884ZM78.9234 10.334C78.9087 9.99062 78.9972 9.65076 79.1777 9.35807C79.3581 9.06539 79.6221 8.83328 79.9357 8.69161C80.2493 8.54993 80.5983 8.50517 80.9376 8.56308C81.2769 8.62099 81.5911 8.77892 81.8398 9.01656C82.0885 9.2542 82.2602 9.56067 82.333 9.89655C82.4057 10.2324 82.3761 10.5824 82.248 10.9013C82.1199 11.2203 81.8991 11.4937 81.6141 11.6863C81.329 11.879 80.9927 11.9821 80.6485 11.9825C80.4284 11.988 80.2095 11.9499 80.0044 11.8704C79.7992 11.7908 79.612 11.6714 79.4535 11.519C79.2949 11.3666 79.1683 11.1843 79.0809 10.9827C78.9935 10.7811 78.9471 10.5641 78.9444 10.3445L78.9234 10.334ZM78.9234 12.8119H82.342V23.1649H78.976L78.9234 12.8119ZM94.6382 17.9884C94.6382 21.3589 93.1235 23.3119 90.5465 23.3119C89.8867 23.3526 89.2303 23.1901 88.666 22.8465C88.1017 22.5029 87.6566 21.9946 87.3909 21.3904H87.3278V26.4934H83.9513V12.8435H87.3067V14.6914H87.3699C87.6265 14.0754 88.0672 13.5533 88.6319 13.1963C89.1966 12.8393 89.8578 12.6647 90.5254 12.6965C93.1761 12.6755 94.7013 14.618 94.7013 17.999L94.6382 17.9884ZM91.1986 17.9884C91.1986 16.3504 90.4308 15.2899 89.2422 15.2899C88.0536 15.2899 87.3067 16.3399 87.2962 17.9884C87.2857 19.6369 88.0536 20.6764 89.2422 20.6764C90.4308 20.6764 91.2617 19.6999 91.2617 17.999L91.1986 17.9884ZM100.402 12.5704C103.232 12.5704 104.989 13.904 105.01 16.046H101.928C101.928 15.3005 101.307 14.8384 100.381 14.8384C99.4557 14.8384 99.014 15.1955 99.014 15.731C99.014 16.2665 99.4032 16.4345 100.182 16.592L102.348 17.0329C104.452 17.4739 105.294 18.3139 105.294 19.8784C105.294 21.9784 103.348 23.4064 100.455 23.4064C97.5624 23.4064 95.6796 22.0204 95.5428 19.9099H98.8141C98.9088 20.6764 99.5189 21.1279 100.508 21.1279C101.496 21.1279 101.959 20.8129 101.959 20.2564C101.959 19.6999 101.644 19.6054 100.834 19.4374L98.8772 19.0279C96.8471 18.5974 95.7847 17.5369 95.7847 15.9514C95.8479 13.8935 97.615 12.581 100.466 12.581L100.402 12.5704ZM116.601 23.1544H113.33V21.2119H113.267C113.084 21.8599 112.685 22.4262 112.136 22.8174C111.587 23.2087 110.921 23.4017 110.248 23.3644C109.739 23.381 109.233 23.29 108.763 23.0975C108.292 22.905 107.867 22.6153 107.517 22.2474C107.166 21.8796 106.897 21.4418 106.728 20.963C106.559 20.4842 106.493 19.975 106.535 19.4689V12.8225H109.911V18.7444C109.911 19.9624 110.553 20.6239 111.605 20.6239C111.852 20.6221 112.095 20.5674 112.319 20.4636C112.543 20.3598 112.742 20.2092 112.902 20.0221C113.063 19.835 113.181 19.6157 113.249 19.3789C113.318 19.1422 113.334 18.8936 113.298 18.6499V12.8225H116.664L116.601 23.1544ZM118.231 12.8119H121.513V14.807H121.587C121.768 14.1679 122.157 13.6068 122.692 13.2116C123.226 12.8164 123.877 12.6094 124.543 12.6229C125.211 12.565 125.876 12.7578 126.409 13.1636C126.942 13.5695 127.304 14.1592 127.425 14.8174H127.572C127.782 14.1557 128.206 13.5817 128.776 13.1849C129.347 12.788 130.033 12.5905 130.728 12.6229C131.189 12.6054 131.65 12.6854 132.078 12.8577C132.507 13.03 132.894 13.2907 133.215 13.6227C133.536 13.9548 133.783 14.3507 133.939 14.7846C134.096 15.2184 134.16 15.6805 134.125 16.1405V23.1649H130.728V17.0014C130.728 15.9514 130.233 15.3634 129.276 15.3634C129.064 15.36 128.853 15.4024 128.659 15.4877C128.465 15.5731 128.291 15.6994 128.15 15.8579C128.009 16.0165 127.904 16.2036 127.843 16.4064C127.781 16.6092 127.764 16.823 127.793 17.0329V23.1649H124.574V16.97C124.574 15.92 124.059 15.3634 123.133 15.3634C122.919 15.3617 122.706 15.4059 122.51 15.4929C122.314 15.5798 122.139 15.7077 121.997 15.8678C121.854 16.0279 121.748 16.2166 121.684 16.4212C121.621 16.6258 121.602 16.8415 121.629 17.0539V23.1649H118.253L118.231 12.8119Z" fill="#232536"/>
<path d="M32.0207 10.3656C32.0208 8.27577 31.3886 6.23464 30.2069 4.50955C29.0252 2.78446 27.3492 1.45585 25.3982 0.697744C23.4473 -0.060362 21.3125 -0.212614 19.2734 0.260927C17.2344 0.734469 15.3861 1.81172 13.9707 3.35159H0.843506V31.0086H28.5601V18.0831C29.6479 17.1118 30.5184 15.9225 31.1147 14.5927C31.711 13.2629 32.0197 11.8225 32.0207 10.3656ZM26.6878 10.3656C26.6898 11.367 26.3943 12.3465 25.8384 13.1802C25.2826 14.0138 24.4915 14.6642 23.5653 15.0488C22.639 15.4335 21.6193 15.5352 20.6351 15.3411C19.651 15.147 18.7466 14.6658 18.0365 13.9585C17.3264 13.2511 16.8425 12.3493 16.646 11.3673C16.4495 10.3853 16.5493 9.36716 16.9327 8.44177C17.3162 7.51638 17.966 6.72533 18.8 6.16876C19.6339 5.61218 20.6146 5.3151 21.6178 5.31509C22.9606 5.31509 24.2486 5.84686 25.1991 6.79371C26.1496 7.74056 26.685 9.02516 26.6878 10.3656ZM23.2271 25.6851H6.17645V8.67509H11.3726C11.2723 9.23313 11.2195 9.79866 11.2149 10.3656C11.2176 13.1189 12.3146 15.7586 14.2649 17.7055C16.2152 19.6523 18.8596 20.7473 21.6178 20.7501C22.157 20.7472 22.6951 20.7016 23.2271 20.6136V25.6851Z" fill="#232536"/>
</svg>
