<svg width="124" height="26" viewBox="0 0 124 26" fill="none" xmlns="http://www.w3.org/2000/svg">
<path d="M40.0185 20.6856C39.3962 20.7191 38.7807 20.5432 38.2713 20.1864C38.0584 20.0295 37.8872 19.8235 37.7723 19.5861C37.6575 19.3488 37.6025 19.0872 37.6122 18.824V9.18317C37.6071 9.14235 37.6114 9.10092 37.6249 9.06203C37.6383 9.02313 37.6605 8.9878 37.6898 8.95871C37.719 8.92963 37.7546 8.90757 37.7937 8.8942C37.8328 8.88083 37.8745 8.87651 37.9156 8.88157H39.6733C39.872 8.88157 39.9662 8.98557 39.9662 9.18317V18.0752C39.9662 18.4704 40.1441 18.668 40.5102 18.668C40.6655 18.6743 40.8208 18.6568 40.9706 18.616C41.1798 18.616 41.2949 18.6784 41.3054 18.8656L41.4623 20.1656C41.4699 20.2035 41.4691 20.2425 41.4602 20.2801C41.4513 20.3177 41.4344 20.353 41.4106 20.3836C41.3868 20.4141 41.3567 20.4392 41.3223 20.4572C41.2879 20.4753 41.25 20.4857 41.2112 20.488C40.8262 20.6144 40.4239 20.681 40.0185 20.6856Z" fill="#232536"/>
<path d="M49.9054 19.5728C49.0222 20.2982 47.9124 20.695 46.7667 20.695C45.6211 20.695 44.5112 20.2982 43.628 19.5728C42.8518 18.7938 42.4163 17.7417 42.4163 16.6452C42.4163 15.5487 42.8518 14.4966 43.628 13.7176C44.5129 12.996 45.6221 12.6016 46.7667 12.6016C47.9113 12.6016 49.0205 12.996 49.9054 13.7176C50.6638 14.5037 51.0872 15.5508 51.0872 16.64C51.0872 17.7292 50.6638 18.7762 49.9054 19.5624V19.5728ZM45.2811 18.2C45.6909 18.569 46.2242 18.7734 46.7772 18.7734C47.3302 18.7734 47.8635 18.569 48.2733 18.2C48.6443 17.776 48.8486 17.2331 48.8486 16.6712C48.8486 16.1093 48.6443 15.5664 48.2733 15.1424C47.8635 14.7733 47.3302 14.5689 46.7772 14.5689C46.2242 14.5689 45.6909 14.7733 45.2811 15.1424C44.9101 15.5664 44.7058 16.1093 44.7058 16.6712C44.7058 17.2331 44.9101 17.776 45.2811 18.2Z" fill="#232536"/>
<path d="M60.7655 12.8647C60.9643 12.8647 61.0585 12.9687 61.0585 13.1663V20.6231C61.0768 21.1264 60.982 21.6274 60.7811 22.0897C60.5802 22.5521 60.2783 22.9641 59.8972 23.2959C59.0512 24.0129 57.9633 24.3846 56.8526 24.3359C55.8494 24.371 54.8596 24.0987 54.0173 23.5559C53.6576 23.3211 53.3503 23.0153 53.1146 22.6575C52.8788 22.2997 52.7195 21.8975 52.6467 21.4759C52.6467 21.2679 52.6467 21.1743 52.9292 21.1743H54.6869C54.7615 21.1768 54.8338 21.2008 54.8951 21.2432C54.9563 21.2856 55.0039 21.3448 55.0322 21.4135C55.1462 21.7294 55.3734 21.9923 55.6704 22.1519C56.0322 22.3375 56.435 22.4305 56.8421 22.4223C57.0878 22.4357 57.3337 22.4003 57.5654 22.3181C57.7971 22.236 58.0101 22.1088 58.1918 21.9439C58.3578 21.7714 58.4869 21.5673 58.5715 21.3439C58.656 21.1205 58.6941 20.8824 58.6835 20.6439V19.9887C58.0542 20.4488 57.2883 20.6868 56.5073 20.6647C55.9608 20.6845 55.4159 20.5942 54.9053 20.3994C54.3947 20.2046 53.9289 19.9093 53.536 19.5311C52.7817 18.7554 52.3601 17.7188 52.3601 16.6399C52.3601 15.5611 52.7817 14.5244 53.536 13.7487C53.9308 13.3739 54.3971 13.0814 54.9074 12.8885C55.4177 12.6956 55.9617 12.6062 56.5073 12.6255C57.3109 12.6044 58.0974 12.8577 58.7358 13.3431V13.1767C58.731 13.1369 58.7352 13.0964 58.7481 13.0584C58.761 13.0203 58.7822 12.9856 58.8102 12.9567C58.8383 12.9279 58.8724 12.9056 58.9102 12.8914C58.9481 12.8773 58.9885 12.8717 59.0288 12.8751L60.7655 12.8647ZM56.7061 18.8135C56.9757 18.8218 57.2438 18.7711 57.4914 18.6651C57.7391 18.5591 57.9603 18.4003 58.1395 18.1999C58.4873 17.7534 58.6761 17.2047 58.6761 16.6399C58.6761 16.0752 58.4873 15.5264 58.1395 15.0799C57.961 14.8822 57.7411 14.7258 57.4953 14.6216C57.2495 14.5174 56.9837 14.4679 56.7166 14.4767C56.4439 14.4682 56.1727 14.5186 55.9216 14.6246C55.6705 14.7305 55.4456 14.8894 55.2623 15.0903C54.877 15.5174 54.6743 16.077 54.6974 16.6503C54.6785 17.2179 54.8766 17.7716 55.2519 18.1999C55.4355 18.4002 55.6606 18.5588 55.9116 18.6647C56.1625 18.7706 56.4336 18.8213 56.7061 18.8135V18.8135Z" fill="#232536"/>
<path d="M70.0874 19.5728C69.2025 20.2944 68.0933 20.6888 66.9487 20.6888C65.8041 20.6888 64.6949 20.2944 63.81 19.5728C63.0509 18.7849 62.6272 17.7361 62.6272 16.6452C62.6272 15.5543 63.0509 14.5055 63.81 13.7176C64.6957 12.9978 65.8046 12.6046 66.9487 12.6046C68.0927 12.6046 69.2016 12.9978 70.0874 13.7176C70.8458 14.5038 71.2692 15.5508 71.2692 16.64C71.2692 17.7292 70.8458 18.7762 70.0874 19.5624V19.5728ZM65.4526 18.2C65.6531 18.3897 65.8896 18.5379 66.1482 18.6361C66.4068 18.7343 66.6824 18.7805 66.9591 18.772C67.2341 18.7791 67.5078 18.7322 67.7645 18.6341C68.0212 18.5359 68.2559 18.3884 68.4553 18.2C68.8202 17.7732 69.0205 17.2313 69.0205 16.6712C69.0205 16.1111 68.8202 15.5692 68.4553 15.1424C68.2559 14.954 68.0212 14.8065 67.7645 14.7083C67.5078 14.6102 67.2341 14.5633 66.9591 14.5704C66.6824 14.5619 66.4068 14.6081 66.1482 14.7063C65.8896 14.8045 65.6531 14.9527 65.4526 15.1424C65.0877 15.5692 64.8873 16.1111 64.8873 16.6712C64.8873 17.2313 65.0877 17.7732 65.4526 18.2Z" fill="#232536"/>
<path d="M75.0465 11.0968C74.7699 11.3374 74.4149 11.4701 74.0473 11.4701C73.6798 11.4701 73.3248 11.3374 73.0482 11.0968C72.9228 10.9792 72.8229 10.8373 72.7546 10.6799C72.6863 10.5226 72.6511 10.353 72.6511 10.1816C72.6511 10.0102 72.6863 9.84063 72.7546 9.68325C72.8229 9.52588 72.9228 9.38403 73.0482 9.2664C73.3276 9.03178 73.6816 8.90308 74.0473 8.90308C74.4131 8.90308 74.7671 9.03178 75.0465 9.2664C75.1719 9.38403 75.2718 9.52588 75.3401 9.68325C75.4083 9.84063 75.4436 10.0102 75.4436 10.1816C75.4436 10.353 75.4083 10.5226 75.3401 10.6799C75.2718 10.8373 75.1719 10.9792 75.0465 11.0968ZM75.2662 20.6856C74.6443 20.7159 74.0298 20.5403 73.519 20.1864C73.3094 20.0272 73.1411 19.8205 73.0282 19.5835C72.9154 19.3465 72.8613 19.0861 72.8703 18.824V13.1664C72.8652 13.1256 72.8696 13.0841 72.883 13.0453C72.8965 13.0064 72.9187 12.971 72.9479 12.9419C72.9772 12.9129 73.0127 12.8908 73.0519 12.8774C73.091 12.8641 73.1327 12.8597 73.1737 12.8648H74.9314C75.1302 12.8648 75.2244 12.9688 75.2244 13.1664V18.0752C75.2244 18.4704 75.4022 18.668 75.7579 18.668C75.9166 18.6737 76.0752 18.6561 76.2287 18.616C76.438 18.616 76.5531 18.6784 76.5635 18.8656L76.7205 20.1656C76.728 20.2035 76.7273 20.2426 76.7184 20.2802C76.7094 20.3178 76.6925 20.353 76.6687 20.3836C76.6449 20.4141 76.6148 20.4393 76.5804 20.4573C76.5461 20.4753 76.5082 20.4858 76.4694 20.488C76.081 20.6151 75.6751 20.6818 75.2662 20.6856Z" fill="#232536"/>
<path d="M83.1865 12.6152C83.7355 12.5936 84.2833 12.6819 84.7973 12.8749C85.3113 13.0678 85.7811 13.3614 86.1787 13.7384C86.9185 14.5276 87.3299 15.5664 87.3299 16.6452C87.3299 17.724 86.9185 18.7627 86.1787 19.552C85.783 19.9322 85.3138 20.2287 84.7995 20.4236C84.2851 20.6184 83.7364 20.7076 83.1865 20.6856C82.403 20.7029 81.6352 20.4655 80.9998 20.0096V23.764C80.9998 23.9616 80.8952 24.0552 80.6964 24.0552H78.9387C78.8986 24.0626 78.8573 24.0602 78.8183 24.0482C78.7794 24.0362 78.7439 24.015 78.7151 23.9863C78.6862 23.9576 78.6648 23.9224 78.6528 23.8836C78.6407 23.8449 78.6383 23.8038 78.6458 23.764V15.236C78.6581 15.1525 78.6506 15.0674 78.624 14.9874C78.5973 14.9074 78.5522 14.8346 78.4922 14.775C78.4322 14.7154 78.3591 14.6706 78.2786 14.6441C78.1981 14.6175 78.1124 14.6101 78.0285 14.6224H77.6833C77.4531 14.6224 77.338 14.5392 77.338 14.3728V13.1456C77.3326 13.0696 77.3535 12.9941 77.3973 12.9317C77.4411 12.8692 77.5051 12.8236 77.5786 12.8024C77.9405 12.6716 78.3236 12.6081 78.7086 12.6152C79.0925 12.5814 79.4779 12.6623 79.8152 12.8476C80.1526 13.0329 80.4267 13.3141 80.6023 13.6552C80.9393 13.3163 81.3422 13.0493 81.7866 12.8705C82.2309 12.6917 82.7072 12.6048 83.1865 12.6152ZM81.5543 18.2C81.7409 18.3938 81.965 18.548 82.2131 18.6534C82.4613 18.7587 82.7283 18.813 82.9981 18.813C83.268 18.813 83.535 18.7587 83.7832 18.6534C84.0313 18.548 84.2554 18.3938 84.4419 18.2C84.8349 17.7643 85.0414 17.1934 85.0174 16.6088C85.0448 16.0236 84.8379 15.4515 84.4419 15.0176C84.2554 14.8238 84.0313 14.6695 83.7832 14.5642C83.535 14.4588 83.268 14.4045 82.9981 14.4045C82.7283 14.4045 82.4613 14.4588 82.2131 14.5642C81.965 14.6695 81.7409 14.8238 81.5543 15.0176C81.1736 15.4591 80.9755 16.0277 80.9998 16.6088C80.9786 17.1893 81.1764 17.7568 81.5543 18.2Z" fill="#232536"/>
<path d="M92.2677 20.6855C91.3285 20.7239 90.3972 20.5005 89.5789 20.0407C89.2505 19.8441 88.9709 19.5766 88.7608 19.2579C88.5507 18.9392 88.4155 18.5776 88.3652 18.1999C88.3652 17.9919 88.4385 17.8879 88.6686 17.8879H90.2066C90.2798 17.8907 90.3507 17.9136 90.4117 17.954C90.4726 17.9943 90.5211 18.0507 90.5519 18.1167C90.7716 18.6783 91.347 18.9591 92.2677 18.9591C92.5888 18.9737 92.9087 18.9094 93.1989 18.7719C93.299 18.7269 93.385 18.6558 93.4477 18.566C93.5103 18.4763 93.5473 18.3713 93.5546 18.2623C93.5546 17.9919 93.3872 17.8047 93.0524 17.6799C92.6553 17.5485 92.2447 17.4613 91.8283 17.4199C91.335 17.3644 90.8457 17.2775 90.3636 17.1599C89.8947 17.0544 89.4683 16.8117 89.1395 16.4631C88.9458 16.2262 88.8032 15.9521 88.7207 15.6581C88.6381 15.3641 88.6172 15.0563 88.6594 14.7539C88.7016 14.4515 88.806 14.161 88.9659 13.9004C89.1259 13.6398 89.3381 13.4147 89.5893 13.2391C90.3434 12.7616 91.2282 12.529 92.1212 12.5735C92.9858 12.5444 93.8413 12.757 94.5904 13.1871C94.8922 13.3571 95.1522 13.5918 95.3513 13.8743C95.5504 14.1568 95.6836 14.4798 95.7412 14.8199C95.7412 15.0279 95.6471 15.1319 95.4587 15.1319H93.9103C93.8451 15.1357 93.7803 15.1199 93.7243 15.0865C93.6683 15.0531 93.6237 15.0037 93.5964 14.9447C93.493 14.6984 93.2982 14.501 93.0524 14.3935C92.7751 14.2493 92.4654 14.1777 92.1526 14.1855C91.8459 14.1689 91.54 14.2297 91.2633 14.3623C91.1658 14.3997 91.0818 14.4652 91.0222 14.5505C90.9625 14.6358 90.9299 14.7368 90.9285 14.8407C90.9352 14.9829 90.9876 15.1193 91.078 15.2297C91.1684 15.3401 91.292 15.4189 91.4307 15.4543C91.8325 15.6048 92.2502 15.7095 92.6757 15.7663C93.165 15.8303 93.6505 15.9206 94.13 16.0367C94.5989 16.1422 95.0253 16.3849 95.3541 16.7335C95.53 16.9255 95.6659 17.1503 95.7539 17.3949C95.8419 17.6394 95.8802 17.8989 95.8668 18.1583C95.8758 18.5178 95.7909 18.8735 95.6204 19.1907C95.4498 19.5078 95.1995 19.7756 94.8938 19.9679C94.1121 20.4667 93.1961 20.717 92.2677 20.6855Z" fill="#232536"/>
<path d="M106.926 20.1655C106.931 20.2025 106.93 20.2402 106.921 20.2765C106.912 20.3129 106.896 20.347 106.873 20.3771C106.851 20.4071 106.823 20.4324 106.79 20.4514C106.758 20.4705 106.722 20.4829 106.685 20.488C106.303 20.6119 105.904 20.6785 105.503 20.6855C105.105 20.7265 104.704 20.6647 104.337 20.5062C103.97 20.3477 103.651 20.0978 103.41 19.7808C102.671 20.4123 101.716 20.7364 100.742 20.6855C100.29 20.7062 99.8391 20.6327 99.4175 20.4697C98.9959 20.3068 98.6132 20.0579 98.2941 19.7391C97.9772 19.4052 97.7314 19.011 97.5714 18.5803C97.4114 18.1497 97.3405 17.6913 97.3629 17.2327V13.1663C97.3629 12.9687 97.4571 12.8647 97.6559 12.8647H99.4136C99.6124 12.8647 99.7065 12.9687 99.7065 13.1663V16.9207C99.6874 17.3885 99.8483 17.8459 100.156 18.1999C100.31 18.3621 100.497 18.4897 100.705 18.574C100.912 18.6583 101.136 18.6974 101.36 18.6888C101.589 18.6987 101.818 18.6634 102.033 18.5849C102.249 18.5063 102.447 18.3861 102.615 18.2311C102.774 18.0678 102.899 17.8737 102.98 17.6609C103.06 17.448 103.097 17.2209 103.086 16.9935V13.1663C103.086 12.9687 103.18 12.8647 103.379 12.8647H105.157C105.356 12.8647 105.45 12.9687 105.45 13.1663V18.0647C105.45 18.4703 105.628 18.668 105.973 18.668C106.136 18.6742 106.298 18.6567 106.455 18.616C106.494 18.6049 106.536 18.6029 106.576 18.6102C106.617 18.6174 106.655 18.6336 106.688 18.6576C106.721 18.6816 106.749 18.7128 106.768 18.7488C106.787 18.7848 106.798 18.8247 106.8 18.8655L106.926 20.1655Z" fill="#232536"/>
<path d="M123.55 20.1657C123.56 20.2029 123.56 20.2417 123.553 20.2794C123.545 20.317 123.529 20.3525 123.506 20.3833C123.483 20.4141 123.454 20.4395 123.42 20.4576C123.386 20.4757 123.348 20.4861 123.31 20.4881C122.921 20.6138 122.515 20.6804 122.106 20.6857C121.484 20.7176 120.869 20.5419 120.359 20.1865C120.139 20.0342 119.959 19.8302 119.837 19.5926C119.715 19.3549 119.653 19.0909 119.658 18.8241V16.3801C119.68 15.9137 119.523 15.4564 119.219 15.1009C119.072 14.9383 118.891 14.8102 118.688 14.7256C118.485 14.6411 118.267 14.6023 118.047 14.6121C117.849 14.6046 117.652 14.642 117.471 14.7212C117.29 14.8005 117.129 14.9196 117.001 15.0697C116.725 15.4182 116.583 15.8537 116.603 16.2969V20.1345C116.603 20.3321 116.509 20.4361 116.31 20.4361H114.542C114.501 20.4411 114.459 20.4368 114.42 20.4234C114.381 20.4101 114.346 20.388 114.316 20.3589C114.287 20.3298 114.265 20.2945 114.251 20.2556C114.238 20.2167 114.234 20.1753 114.239 20.1345V16.3801C114.262 15.9188 114.117 15.4648 113.831 15.1009C113.703 14.948 113.543 14.825 113.362 14.7405C113.182 14.656 112.984 14.6121 112.784 14.6121C112.571 14.6035 112.358 14.6398 112.16 14.7187C111.961 14.7975 111.782 14.9171 111.634 15.0697C111.334 15.407 111.18 15.8477 111.205 16.2969V20.1345C111.21 20.1753 111.205 20.2167 111.192 20.2556C111.178 20.2945 111.156 20.3298 111.127 20.3589C111.098 20.388 111.062 20.4101 111.023 20.4234C110.984 20.4368 110.942 20.4411 110.901 20.4361H109.196C108.997 20.4361 108.903 20.3321 108.903 20.1345V15.2361C108.915 15.1526 108.908 15.0675 108.881 14.9875C108.854 14.9075 108.809 14.8347 108.749 14.7751C108.689 14.7155 108.616 14.6707 108.536 14.6442C108.455 14.6176 108.37 14.6102 108.286 14.6225H107.94C107.71 14.6225 107.595 14.5393 107.595 14.3729V13.1457C107.59 13.0697 107.611 12.9942 107.654 12.9318C107.698 12.8693 107.762 12.8237 107.836 12.8025C108.198 12.6717 108.581 12.6082 108.966 12.6153C109.335 12.584 109.706 12.6572 110.036 12.8265C110.365 12.9958 110.64 13.2543 110.828 13.5721C111.181 13.2395 111.599 12.9829 112.056 12.8183C112.514 12.6536 113 12.5845 113.485 12.6153C113.957 12.5924 114.427 12.6803 114.858 12.8718C115.289 13.0634 115.668 13.3531 115.965 13.7177C116.311 13.3436 116.737 13.0506 117.211 12.86C117.685 12.6693 118.196 12.5858 118.706 12.6153C119.163 12.594 119.619 12.6672 120.046 12.8301C120.473 12.993 120.861 13.2421 121.186 13.5617C121.504 13.895 121.75 14.289 121.91 14.7198C122.07 15.1507 122.141 15.6094 122.117 16.0681V18.0753C122.117 18.4705 122.295 18.6681 122.63 18.6681C122.792 18.6756 122.954 18.658 123.111 18.6161C123.327 18.6161 123.442 18.6993 123.456 18.8657L123.55 20.1657Z" fill="#232536"/>
<path d="M0.86841 11.5129C1.64029 8.42894 3.42795 5.69035 5.94674 3.73318C8.46554 1.776 11.5706 0.712769 14.7677 0.712769C17.9647 0.712769 21.0698 1.776 23.5886 3.73318C26.1074 5.69035 27.895 8.42894 28.6669 11.5129H27.4114C25.2935 11.4819 23.219 12.1111 21.4793 13.3121C21.3789 13.3843 21.274 13.4503 21.1654 13.5097H21.0189C20.9103 13.4503 20.8055 13.3843 20.7051 13.3121C18.9499 12.1389 16.8828 11.5122 14.7677 11.5122C12.6526 11.5122 10.5855 12.1389 8.83027 13.3121C8.72987 13.3843 8.62504 13.4503 8.5164 13.5097H8.36993C8.26129 13.4503 8.15646 13.3843 8.05606 13.3121C6.31631 12.1111 4.24181 11.4819 2.12389 11.5129H0.86841ZM25.1516 18.0337C25.7961 17.5348 26.5948 17.2738 27.4114 17.2953H29.0959V13.9569H27.4114C25.9731 13.9396 24.5676 14.3846 23.4044 15.2257C22.7497 15.7054 21.9578 15.9642 21.1445 15.9642C20.3312 15.9642 19.5392 15.7054 18.8846 15.2257C17.6918 14.4003 16.2733 13.9578 14.82 13.9578C13.3666 13.9578 11.9481 14.4003 10.7553 15.2257C10.1007 15.7054 9.30878 15.9642 8.49548 15.9642C7.68218 15.9642 6.89023 15.7054 6.23561 15.2257C5.05796 14.3738 3.63235 13.9283 2.17621 13.9569H0.439453V17.2953H2.12389C2.94049 17.2738 3.73927 17.5348 4.38377 18.0337C5.57439 18.8596 6.9913 19.3024 8.44317 19.3024C9.89503 19.3024 11.3119 18.8596 12.5026 18.0337C13.1479 17.5363 13.9461 17.2755 14.7624 17.2953C15.5793 17.272 16.3786 17.5332 17.0223 18.0337C18.2151 18.8591 19.6336 19.3015 21.0869 19.3015C22.5403 19.3015 23.9588 18.8591 25.1516 18.0337ZM25.1516 24.0033C25.7961 23.5044 26.5948 23.2434 27.4114 23.2649H29.0959V19.9265H27.4114C25.9731 19.9092 24.5676 20.3542 23.4044 21.1953C22.7497 21.675 21.9578 21.9338 21.1445 21.9338C20.3312 21.9338 19.5392 21.675 18.8846 21.1953C17.6918 20.3699 16.2733 19.9275 14.82 19.9275C13.3666 19.9275 11.9481 20.3699 10.7553 21.1953C10.1007 21.675 9.30878 21.9338 8.49548 21.9338C7.68218 21.9338 6.89023 21.675 6.23561 21.1953C5.05796 20.3435 3.63235 19.8979 2.17621 19.9265H0.439453V23.2649H2.12389C2.94049 23.2434 3.73927 23.5044 4.38377 24.0033C5.57439 24.8292 6.9913 25.2721 8.44317 25.2721C9.89503 25.2721 11.3119 24.8292 12.5026 24.0033C13.1479 23.5059 13.9461 23.2451 14.7624 23.2649C15.5793 23.2416 16.3786 23.5028 17.0223 24.0033C18.2151 24.8287 19.6336 25.2711 21.0869 25.2711C22.5403 25.2711 23.9588 24.8287 25.1516 24.0033Z" fill="#232536"/>
</svg>
