<svg width="125" height="29" viewBox="0 0 125 29" fill="none" xmlns="http://www.w3.org/2000/svg">
<path d="M36.1824 8.27352H39.338V21.01H36.1824V8.27352ZM40.5897 16.201C40.5897 13.051 42.5251 11.1715 45.5124 11.1715C48.4997 11.1715 50.4351 13.051 50.4351 16.201C50.4351 19.351 48.5417 21.241 45.5124 21.241C42.483 21.241 40.5897 19.4035 40.5897 16.201ZM47.269 16.201C47.269 14.4685 46.5853 13.45 45.5124 13.45C44.4395 13.45 43.7663 14.5 43.7663 16.201C43.7663 17.902 44.429 18.931 45.5124 18.931C46.5958 18.931 47.269 17.965 47.269 16.2115V16.201ZM51.6237 21.6295H54.6531C54.7972 21.9492 55.041 22.2139 55.348 22.3842C55.6551 22.5545 56.009 22.6212 56.3571 22.5745C57.5562 22.5745 58.1873 21.9235 58.1873 20.9785V19.2145H58.1242C57.8728 19.7552 57.4648 20.2082 56.953 20.5151C56.4411 20.8221 55.8489 20.9688 55.2526 20.9365C52.9491 20.9365 51.4239 19.183 51.4239 16.1695C51.4239 13.156 52.8754 11.2555 55.2947 11.2555C55.9096 11.2315 56.5172 11.3956 57.0361 11.7259C57.5549 12.0561 57.9603 12.5368 58.1978 13.1035V11.35H61.3534V20.905C61.3534 23.2045 59.3233 24.6325 56.3255 24.6325C53.5381 24.6325 51.8025 23.383 51.6237 21.64V21.6295ZM58.1978 16.1905C58.1978 14.6575 57.4931 13.6915 56.3781 13.6915C55.2631 13.6915 54.5794 14.647 54.5794 16.1905C54.5794 17.734 55.2526 18.6055 56.3781 18.6055C57.5036 18.6055 58.1978 17.755 58.1978 16.201V16.1905ZM62.542 16.1905C62.542 13.0405 64.4775 11.161 67.4647 11.161C70.452 11.161 72.398 13.0405 72.398 16.1905C72.398 19.3405 70.5046 21.2305 67.4647 21.2305C64.4249 21.2305 62.542 19.4035 62.542 16.201V16.1905ZM69.2214 16.1905C69.2214 14.458 68.5376 13.4395 67.4647 13.4395C66.3918 13.4395 65.7712 14.5 65.7712 16.2115C65.7712 17.923 66.4339 18.9415 67.5068 18.9415C68.5797 18.9415 69.2214 17.965 69.2214 16.2115V16.1905ZM73.5971 9.06102C73.5888 8.74298 73.6753 8.42966 73.8457 8.16076C74.016 7.89186 74.2625 7.6795 74.5539 7.5506C74.8453 7.4217 75.1684 7.38207 75.4824 7.43673C75.7964 7.49138 76.087 7.63787 76.3175 7.85761C76.548 8.07735 76.7079 8.36046 76.777 8.67104C76.8461 8.98162 76.8212 9.30568 76.7056 9.60215C76.59 9.89862 76.3888 10.1541 76.1275 10.3363C75.8662 10.5185 75.5566 10.6192 75.238 10.6255C75.0268 10.64 74.8148 10.6107 74.6155 10.5395C74.4161 10.4683 74.2336 10.3568 74.0796 10.2118C73.9255 10.0669 73.8031 9.89169 73.72 9.69726C73.637 9.50283 73.5951 9.29337 73.5971 9.08202V9.06102ZM73.5971 11.371H76.7527V21.01H73.5971V11.371ZM88.2075 16.1905C88.2075 19.3405 86.8085 21.136 84.4102 21.136C83.7953 21.1754 83.183 21.0254 82.6563 20.7061C82.1295 20.3869 81.7137 19.9138 81.465 19.351H81.4019V24.097H78.2463V11.35H81.4019V13.072H81.465C81.7021 12.4999 82.11 12.0146 82.6332 11.682C83.1564 11.3495 83.7696 11.1859 84.3892 11.2135C86.8085 11.2555 88.2495 13.0615 88.2495 16.2115L88.2075 16.1905ZM85.0519 16.1905C85.0519 14.6575 84.3471 13.681 83.2427 13.681C82.1382 13.681 81.4335 14.668 81.4229 16.1905C81.4124 17.713 82.1382 18.6895 83.2427 18.6895C84.3471 18.6895 85.0519 17.734 85.0519 16.2115V16.1905ZM93.6245 11.1505C96.2437 11.1505 97.832 12.3895 97.9056 14.374H95.034C95.034 13.6915 94.466 13.261 93.593 13.261C92.7199 13.261 92.3308 13.597 92.3308 14.0905C92.3308 14.584 92.6779 14.7415 93.3826 14.8885L95.4022 15.298C97.3271 15.7075 98.1475 16.4845 98.1475 17.944C98.1475 19.939 96.3278 21.22 93.6456 21.22C90.9633 21.22 89.2067 19.939 89.07 17.9755H92.1099C92.2045 18.6895 92.7725 19.1095 93.6982 19.1095C94.6238 19.1095 95.0446 18.805 95.0446 18.301C95.0446 17.797 94.75 17.692 93.9927 17.5345L92.173 17.146C90.2901 16.7575 89.3014 15.76 89.3014 14.29C89.3224 12.4 91.0159 11.1715 93.6245 11.1715V11.1505ZM108.677 20.989H105.637V19.1935H105.574C105.407 19.7963 105.038 20.324 104.529 20.6888C104.02 21.0536 103.401 21.2336 102.776 21.199C102.296 21.2262 101.817 21.1504 101.369 20.9766C100.922 20.8029 100.517 20.5353 100.182 20.1919C99.8465 19.8485 99.5892 19.4373 99.427 18.9861C99.2648 18.5349 99.2016 18.0542 99.2415 17.5765V11.35H102.397V16.852C102.397 17.9965 102.986 18.6055 103.964 18.6055C104.194 18.606 104.421 18.5575 104.63 18.4633C104.839 18.3691 105.025 18.2314 105.177 18.0594C105.328 17.8874 105.441 17.685 105.508 17.4659C105.574 17.2468 105.593 17.016 105.563 16.789V11.35H108.719L108.677 20.989ZM110.202 11.35H113.252V13.2085H113.315C113.483 12.6137 113.843 12.091 114.34 11.7224C114.837 11.3539 115.442 11.1601 116.061 11.1715C116.69 11.1212 117.316 11.3093 117.813 11.6984C118.31 12.0875 118.642 12.6491 118.743 13.2715H118.806C118.997 12.6425 119.392 12.0948 119.929 11.7146C120.466 11.3343 121.115 11.1433 121.772 11.1715C122.202 11.1571 122.629 11.233 123.027 11.3943C123.425 11.5555 123.784 11.7985 124.082 12.1075C124.379 12.4165 124.608 12.7845 124.754 13.1876C124.9 13.5908 124.959 14.02 124.928 14.4475V21.01H121.772V15.2875C121.772 14.2375 121.299 13.7545 120.415 13.7545C120.218 13.7529 120.023 13.7934 119.843 13.8734C119.663 13.9534 119.503 14.071 119.372 14.2183C119.241 14.3656 119.144 14.5391 119.086 14.7272C119.029 14.9153 119.012 15.1135 119.038 15.3085V21.01H116.04V15.2455C116.04 14.2795 115.566 13.7545 114.704 13.7545C114.505 13.7546 114.308 13.7968 114.126 13.8784C113.944 13.9601 113.782 14.0792 113.65 14.2281C113.517 14.3769 113.418 14.552 113.359 14.7419C113.3 14.9317 113.281 15.132 113.305 15.3295V21.01H110.149L110.202 11.35Z" fill="#232536"/>
<path d="M27.3573 8.85098C26.822 7.62916 26.1135 6.49051 25.2536 5.46998C23.9824 3.91634 22.3959 2.64905 20.5987 1.75152C18.8015 0.853993 16.8343 0.34658 14.8265 0.262677C12.8187 0.178774 10.8158 0.52028 8.94973 1.26472C7.08367 2.00917 5.39669 3.13967 3.99984 4.58182C2.60299 6.02397 1.52794 7.74507 0.845438 9.63185C0.162936 11.5186 -0.11154 13.5283 0.0400764 15.5286C0.191693 17.5289 0.765965 19.4744 1.72509 21.2372C2.68422 23 4.00646 24.5401 5.60479 25.756C6.63036 26.5518 7.76358 27.1987 8.97075 27.6775C10.6632 28.3698 12.4746 28.7265 14.3037 28.7275C18.0792 28.7191 21.6975 27.2168 24.3652 24.5499C27.033 21.8829 28.5326 18.2689 28.5354 14.5C28.5382 12.5559 28.137 10.6324 27.3573 8.85098ZM14.2932 3.14948C15.9357 3.1493 17.5584 3.50767 19.0476 4.19948C18.6844 4.35611 18.3026 4.4655 17.9116 4.52498C16.6247 4.71093 15.4326 5.30731 14.5132 6.22511C13.5938 7.14291 12.9963 8.3329 12.81 9.61748C12.7283 10.3379 12.4 11.0081 11.8807 11.515C11.3614 12.0219 10.6828 12.3345 9.95949 12.4C8.67264 12.5859 7.48054 13.1823 6.56111 14.1001C5.64168 15.0179 5.04424 16.2079 4.85797 17.4925C4.7949 18.1775 4.50211 18.8212 4.02699 19.3195C3.20723 17.5904 2.83897 15.6824 2.95649 13.7731C3.074 11.8637 3.67346 10.0151 4.6991 8.39922C5.72474 6.78332 7.14321 5.45268 8.82251 4.53112C10.5018 3.60957 12.3874 3.12705 14.3037 3.12848L14.2932 3.14948ZM5.59427 21.85C5.72049 21.7345 5.84672 21.6295 5.97294 21.5035C6.90873 20.5978 7.50941 19.4023 7.67696 18.112C7.74489 17.3867 8.0693 16.7092 8.59207 16.201C9.09513 15.6783 9.77223 15.3571 10.4959 15.298C11.7828 15.112 12.9749 14.5156 13.8943 13.5978C14.8138 12.6801 15.4112 11.4901 15.5975 10.2055C15.643 9.44687 15.9691 8.73216 16.5126 8.19998C17.0281 7.68742 17.7116 7.37794 18.4375 7.32848C19.6197 7.16611 20.7223 6.64148 21.5931 5.82698C22.5846 6.64816 23.4247 7.63602 24.0755 8.74598C24.0355 8.7999 23.9897 8.8492 23.9387 8.89298C23.4367 9.42029 22.7604 9.74848 22.0349 9.81698C20.7467 9.99968 19.5528 10.595 18.6328 11.5134C17.7128 12.4318 17.1164 13.6236 16.9333 14.9095C16.8592 15.6323 16.537 16.3074 16.0213 16.8202C15.5057 17.3331 14.8282 17.6522 14.1038 17.7235C12.8132 17.908 11.6167 18.5032 10.6919 19.4206C9.76717 20.3381 9.16355 21.5288 8.97075 22.816C8.91414 23.3291 8.73759 23.8219 8.45533 24.2545C7.37612 23.6149 6.40955 22.8025 5.59427 21.85ZM14.2932 25.903C13.2258 25.9041 12.1636 25.7557 11.1376 25.462C11.4885 24.8089 11.7167 24.0971 11.8108 23.362C11.8845 22.6407 12.2052 21.967 12.7187 21.4543C13.2323 20.9417 13.9072 20.6216 14.6298 20.548C15.9185 20.3641 17.113 19.7687 18.0345 18.8507C18.956 17.9327 19.555 16.7416 19.7418 15.4555C19.8155 14.7342 20.1362 14.0605 20.6498 13.5478C21.1633 13.0352 21.8383 12.7151 22.5608 12.6415C23.5306 12.5156 24.455 12.1551 25.2536 11.5915C25.697 13.2693 25.7495 15.0262 25.4071 16.7274C25.0647 18.4286 24.3365 20.0289 23.2783 21.4056C22.2201 22.7822 20.8601 23.8986 19.3026 24.6691C17.7451 25.4396 16.0314 25.8437 14.2932 25.8505V25.903Z" fill="#232536"/>
</svg>
